<?xml version="1.0" standalone="no"?>
<!DOCTYPE svg PUBLIC "-//W3C//DTD SVG 20010904//EN"
 "http://www.w3.org/TR/2001/REC-SVG-20010904/DTD/svg10.dtd">
<svg version="1.0" xmlns="http://www.w3.org/2000/svg"
 width="1919.000000pt" height="909.000000pt" viewBox="0 0 1919.000000 909.000000"
 preserveAspectRatio="xMidYMid meet">
<metadata>
Created by potrace 1.14, written by Peter Selinger 2001-2017
</metadata>
<g transform="translate(0.000000,909.000000) scale(0.100000,-0.100000)"
fill="#000000" stroke="none">
<path d="M0 8842 l0 -249 443 -6 c243 -4 4561 -7 9595 -7 l9152 0 0 255 0 255
-9595 0 -9595 0 0 -248z m4395 68 c14 -15 20 -34 20 -66 0 -60 -27 -84 -96
-84 l-49 0 0 74 c0 104 3 110 59 102 26 -3 55 -15 66 -26z"/>
<path d="M7 8143 c-4 -3 -7 -98 -7 -210 l0 -203 1290 0 1290 0 2 -1197 3
-1198 2 1193 3 1192 84 0 85 0 3 48 c2 26 5 -1292 6 -2928 1 -1636 2 -3032 2
-3102 0 -107 2 -128 15 -128 13 0 15 21 15 125 l0 125 255 0 255 0 0 -125 c0
-104 2 -125 15 -125 13 0 15 21 15 125 l0 125 255 0 255 0 0 -125 c0 -104 2
-125 15 -125 13 0 15 21 15 125 l0 125 255 0 255 0 0 -125 c0 -104 2 -125 15
-125 13 0 15 21 15 125 l0 125 255 0 255 0 0 -125 c0 -104 2 -125 15 -125 13
0 15 21 15 125 l0 125 255 0 255 0 0 -125 c0 -104 2 -125 15 -125 13 0 15 21
15 125 l0 125 255 0 255 0 0 -125 c0 -118 1 -125 20 -125 19 0 20 7 20 125 l0
125 255 0 255 0 0 -125 c0 -104 2 -125 15 -125 13 0 15 21 15 125 l0 125 255
0 255 0 0 -125 c0 -104 2 -125 15 -125 13 0 15 21 15 125 l0 125 255 0 255 0
0 -125 c0 -104 2 -125 15 -125 13 0 15 21 15 125 l0 125 255 0 255 0 0 -125
c0 -104 2 -125 15 -125 13 0 15 21 15 125 l0 125 255 0 255 0 0 -125 c0 -104
2 -125 15 -125 13 0 15 21 15 125 l0 125 255 0 255 0 0 -125 c0 -104 2 -125
15 -125 13 0 15 21 15 125 l0 125 255 0 255 0 0 -125 c0 -104 2 -125 15 -125
13 0 15 21 15 125 l0 125 255 0 255 0 0 -125 c0 -104 2 -125 15 -125 13 0 15
21 15 125 l0 125 255 0 255 0 0 -125 c0 -104 2 -125 15 -125 13 0 15 21 15
125 l0 125 255 0 255 0 0 -125 c0 -118 1 -125 20 -125 19 0 20 7 20 125 l0
125 255 0 255 0 0 -125 c0 -104 2 -125 15 -125 13 0 15 21 15 125 l0 125 255
0 255 0 0 -125 c0 -104 2 -125 15 -125 13 0 15 21 15 125 l0 125 255 0 255 0
0 -125 c0 -104 2 -125 15 -125 13 0 15 21 15 125 l0 125 255 0 255 0 0 -125
c0 -104 2 -125 15 -125 13 0 15 21 15 125 l0 125 255 0 255 0 0 -125 c0 -104
2 -125 15 -125 13 0 15 21 15 125 l0 125 255 0 255 0 0 -125 c0 -104 2 -125
15 -125 13 0 15 21 15 125 l0 125 255 0 255 0 0 -125 c0 -104 2 -125 15 -125
13 0 15 21 15 125 l0 125 255 0 255 0 0 -125 c0 -104 2 -125 15 -125 13 0 15
21 15 125 l0 125 70 0 c55 0 70 3 70 15 0 11 -16 15 -67 17 l-68 3 0 255 0
255 68 3 c51 2 67 6 67 17 0 12 -15 15 -70 15 l-70 0 2 253 3 252 68 3 c51 2
67 6 67 17 0 12 -15 15 -70 15 l-70 0 2 253 3 252 68 3 c51 2 67 6 67 17 0 12
-15 15 -70 15 l-70 0 2 253 3 252 68 3 c51 2 67 6 67 17 0 12 -15 15 -70 15
l-70 0 0 255 0 255 70 0 c56 0 70 3 70 15 0 12 -14 15 -70 15 l-70 0 0 255 0
255 70 0 c55 0 70 3 70 15 0 11 -16 15 -67 17 l-68 3 -3 253 -2 252 70 0 c55
0 70 3 70 15 0 11 -16 15 -67 17 l-68 3 -3 253 -2 252 70 0 c55 0 70 3 70 15
0 11 -16 15 -67 17 l-68 3 -3 253 -2 252 70 0 c55 0 70 3 70 15 0 11 -16 15
-67 17 l-68 3 -3 253 -2 252 70 0 c63 0 70 2 70 20 0 18 -7 20 -70 20 l-70 0
2 253 3 252 73 3 72 3 0 -61 0 -60 1503 0 c826 0 1559 -3 1630 -7 l127 -6 0
231 0 232 -1630 0 -1630 0 0 -150 0 -150 -75 0 -75 0 0 145 c0 122 -2 145 -15
145 -13 0 -15 -23 -15 -145 l0 -145 -255 0 -255 0 0 145 c0 122 -2 145 -15
145 -13 0 -15 -23 -15 -145 l0 -145 -255 0 -255 0 0 145 c0 122 -2 145 -15
145 -13 0 -15 -23 -15 -145 l0 -145 -255 0 -255 0 0 145 c0 122 -2 145 -15
145 -13 0 -15 -23 -15 -145 l0 -145 -255 0 -255 0 0 145 c0 122 -2 145 -15
145 -13 0 -15 -23 -15 -145 l0 -145 -255 0 -255 0 0 145 c0 122 -2 145 -15
145 -13 0 -15 -23 -15 -145 l0 -145 -255 0 -255 0 0 145 c0 122 -2 145 -15
145 -13 0 -15 -23 -15 -145 l0 -145 -255 0 -255 0 0 145 c0 122 -2 145 -15
145 -13 0 -15 -23 -15 -145 l0 -145 -255 0 -255 0 0 145 c0 138 -1 145 -20
145 -19 0 -20 -7 -20 -145 l0 -145 -255 0 -255 0 0 145 c0 122 -2 145 -15 145
-13 0 -15 -23 -15 -145 l0 -145 -255 0 -255 0 0 145 c0 122 -2 145 -15 145
-13 0 -15 -23 -15 -145 l0 -145 -255 0 -255 0 0 145 c0 122 -2 145 -15 145
-13 0 -15 -23 -15 -145 l0 -145 -255 0 -255 0 0 145 c0 122 -2 145 -15 145
-13 0 -15 -23 -15 -145 l0 -145 -255 0 -255 0 0 145 c0 122 -2 145 -15 145
-13 0 -15 -23 -15 -145 l0 -145 -255 0 -255 0 0 145 c0 122 -2 145 -15 145
-13 0 -15 -23 -15 -145 l0 -145 -255 0 -255 0 0 145 c0 122 -2 145 -15 145
-13 0 -15 -23 -15 -145 l0 -145 -255 0 -255 0 0 145 c0 122 -2 145 -15 145
-13 0 -15 -23 -15 -145 l0 -145 -255 0 -255 0 0 145 c0 122 -2 145 -15 145
-13 0 -15 -23 -15 -145 l0 -145 -255 0 -255 0 0 145 c0 138 -1 145 -20 145
-19 0 -20 -7 -20 -145 l0 -145 -255 0 -255 0 0 145 c0 122 -2 145 -15 145 -13
0 -15 -23 -15 -145 l0 -145 -255 0 -255 0 0 145 c0 122 -2 145 -15 145 -13 0
-15 -23 -15 -145 l0 -145 -255 0 -255 0 0 145 c0 122 -2 145 -15 145 -13 0
-15 -23 -15 -145 l0 -145 -255 0 -255 0 0 145 c0 122 -2 145 -15 145 -13 0
-15 -23 -15 -145 l0 -145 -255 0 -255 0 0 145 c0 122 -2 145 -15 145 -13 0
-15 -23 -15 -145 l0 -145 -255 0 -255 0 0 145 c0 121 -2 145 -15 145 -12 0
-15 -26 -18 -147 l-3 -148 -2 153 -2 152 -1373 0 c-756 0 -1377 -3 -1380 -7z
m2482 -110 l71 -77 80 79 c44 43 83 76 87 72 4 -4 -29 -43 -72 -87 l-80 -80
80 -80 c44 -44 75 -80 70 -80 -5 0 -44 34 -85 75 l-75 75 -75 -75 c-41 -41
-81 -75 -90 -75 -8 0 22 37 68 83 l82 82 -75 75 c-41 41 -75 78 -75 82 0 20
22 2 89 -69z m16589 -10 c43 43 81 74 85 70 4 -4 -27 -42 -70 -85 l-78 -78 78
-78 c43 -43 74 -81 70 -85 -4 -4 -42 27 -85 70 l-78 78 -80 -80 c-99 -98 -106
-83 -9 20 l71 75 -71 76 c-97 103 -90 118 9 19 l80 -80 78 78z m-18063 -39
c19 -21 25 -23 25 -10 0 39 79 40 94 0 24 -62 -50 -116 -87 -64 l-14 20 -18
-20 c-25 -27 -61 -25 -80 4 -27 41 -1 91 48 95 4 1 19 -11 32 -25z m284 17 c8
-5 12 -18 8 -30 -8 -33 10 -34 22 -1 5 17 14 30 20 30 5 0 16 3 24 6 20 7 57
-30 57 -58 0 -50 -67 -78 -92 -39 -12 20 -12 20 -26 0 -8 -11 -25 -19 -43 -19
-29 0 -29 0 -29 60 0 56 2 60 23 60 12 0 28 -4 36 -9z m2009 -438 l2 -253
-255 0 -255 0 0 255 0 255 253 -2 252 -3 3 -252z m542 2 l0 -255 -255 0 -255
0 0 255 0 255 255 0 255 0 0 -255z m540 16 c0 -132 -3 -246 -6 -255 -5 -14
-37 -16 -255 -16 l-249 0 0 255 0 255 255 0 255 0 0 -239z m540 166 l0 -74
-57 -13 c-122 -26 -237 -109 -277 -197 -18 -40 -18 -40 -70 -39 -35 0 -62 -6
-79 -17 l-27 -17 0 208 c0 115 3 212 7 215 3 4 118 7 255 7 l248 0 0 -73z
m540 -136 l0 -209 -40 15 c-33 13 -47 14 -78 5 -20 -7 -38 -8 -40 -3 -8 24
-71 110 -104 141 -44 43 -128 86 -197 101 l-51 11 0 67 c0 37 3 71 7 74 3 4
118 7 255 7 l248 0 0 -209z m540 -26 l0 -235 -252 2 -253 3 -3 220 c-1 121 0
225 2 232 4 10 62 13 256 13 l250 0 0 -235z m545 0 l0 -230 -252 -3 -253 -2 0
235 0 235 253 -2 252 -3 0 -230z m540 5 l0 -225 -97 -3 c-97 -3 -98 -3 -98
-27 0 -22 -4 -25 -39 -25 -32 0 -40 4 -45 23 -9 37 -55 76 -103 88 -43 11 -43
12 -43 55 0 40 -2 44 -25 44 -22 0 -24 -4 -27 -57 -2 -34 -8 -58 -15 -61 -10
-3 -13 43 -13 207 l0 211 253 -2 252 -3 0 -225z m543 18 c1 -115 0 -208 -2
-208 -27 0 -36 16 -36 67 0 51 -2 54 -22 51 -19 -2 -24 -10 -26 -45 -3 -40 -5
-43 -42 -53 -39 -10 -83 -52 -95 -90 -5 -15 -15 -20 -41 -20 -30 0 -34 3 -34
25 l0 25 -105 0 -105 0 0 230 0 230 253 -2 252 -3 3 -207z m540 -25 l2 -233
-255 0 -255 0 0 235 0 235 253 -2 252 -3 3 -232z m542 2 l0 -235 -255 0 -255
0 0 235 0 235 255 0 255 0 0 -235z m540 70 l0 -165 -25 0 c-25 0 -25 -1 -25
-90 l0 -90 -108 0 -108 0 -23 41 c-41 72 -131 96 -198 53 l-23 -14 0 215 0
215 255 0 255 0 0 -165z m540 -44 l0 -208 -46 15 c-42 14 -49 14 -92 -4 -37
-15 -51 -28 -67 -61 l-20 -42 -107 -1 -108 0 0 196 c0 152 -3 195 -12 192 -10
-4 -14 -54 -16 -196 -2 -184 -3 -192 -22 -192 -19 0 -20 8 -20 248 0 137 3
252 7 255 3 4 118 7 255 7 l248 0 0 -209z m540 -26 l0 -235 -252 2 -253 3 -3
220 c-1 121 0 225 2 232 4 10 62 13 256 13 l250 0 0 -235z m540 0 l0 -235
-255 0 -255 0 0 228 c0 126 3 232 7 235 3 4 118 7 255 7 l248 0 0 -235z m540
0 l0 -235 -255 0 -255 0 0 228 c0 126 3 232 7 235 3 4 118 7 255 7 l248 0 0
-235z m548 160 l3 -71 -58 -12 c-123 -26 -235 -103 -284 -198 -22 -42 -26 -45
-56 -39 -19 3 -47 0 -69 -10 -20 -8 -38 -15 -40 -15 -2 0 -4 95 -4 210 l0 210
253 -2 252 -3 3 -70z m540 -139 c2 -196 1 -208 -15 -201 -60 24 -73 26 -109
16 -21 -6 -39 -9 -40 -8 -1 1 -11 21 -23 45 -54 107 -151 175 -293 206 -28 6
-28 8 -28 81 l0 75 253 -2 252 -3 3 -209z m540 -43 l2 -253 -243 0 -244 0 -11
25 c-8 17 -12 103 -12 256 l0 229 253 -2 252 -3 3 -252z m542 2 l0 -255 -255
0 -255 0 0 255 0 255 255 0 255 0 0 -255z m540 0 l0 -255 -255 0 -255 0 0 255
0 255 255 0 255 0 0 -255z m540 0 l0 -255 -255 0 -255 0 0 248 c0 137 3 252 7
255 3 4 118 7 255 7 l248 0 0 -255z m540 0 l0 -255 -255 0 -255 0 0 248 c0
137 3 252 7 255 3 4 118 7 255 7 l248 0 0 -255z m540 0 l0 -255 -255 0 -255 0
0 248 c0 137 3 252 7 255 3 4 118 7 255 7 l248 0 0 -255z m-10820 11 c0 -61
-3 -75 -16 -78 -11 -2 -28 -35 -49 -93 l-33 -90 -85 -3 c-78 -2 -86 -1 -92 17
-3 11 -19 34 -35 51 l-30 32 21 40 c27 52 96 121 151 149 34 18 119 43 161 48
4 1 7 -32 7 -73z m7038 -2 c2 -62 1 -70 -19 -79 -14 -7 -32 -38 -54 -95 l-32
-85 -87 -3 c-71 -2 -86 0 -86 12 0 9 -14 31 -32 51 -31 36 -31 36 -15 71 24
48 93 121 146 152 42 24 143 53 166 48 6 -2 11 -34 13 -72z m169 35 c61 -30
134 -99 166 -157 l27 -50 -25 -38 c-14 -20 -25 -41 -25 -46 0 -5 -45 -7 -101
-6 l-100 3 -40 95 c-33 80 -39 106 -39 166 l0 71 47 -8 c26 -5 66 -18 90 -30z
m-7069 15 c69 -22 161 -99 195 -163 l28 -51 -23 -50 -23 -49 -100 -1 -100 0
-42 103 c-35 83 -43 115 -43 165 0 62 0 62 29 62 16 0 51 -7 79 -16z m-1760
-606 l-3 -253 -252 -3 -253 -2 0 255 0 255 255 0 255 0 -2 -252z m542 -3 l0
-255 -255 0 -255 0 0 255 0 255 255 0 255 0 0 -255z m534 233 c3 -13 6 -128 6
-256 l0 -232 -252 2 -253 3 -3 253 -2 252 249 0 249 0 6 -22z m426 19 c0 -2
-18 -49 -40 -106 -22 -56 -38 -107 -34 -112 3 -5 16 -9 29 -9 27 0 44 26 65
98 13 41 14 42 57 42 l43 0 0 -210 0 -210 -180 0 -180 0 0 183 1 182 23 -44
c51 -97 200 -201 287 -201 55 0 49 16 -8 24 -108 14 -208 88 -267 195 l-28 53
31 29 c18 16 37 42 42 59 11 30 12 30 85 30 41 0 74 -1 74 -3z m443 -30 c8
-18 22 -41 32 -50 16 -17 16 -21 1 -61 -23 -60 -62 -109 -124 -156 -52 -39
-132 -70 -179 -70 l-24 0 3 138 3 137 30 3 c28 2 31 -1 58 -68 26 -64 31 -70
57 -70 16 0 31 4 34 8 3 5 -13 51 -34 103 -22 52 -40 100 -40 107 0 9 23 12
85 12 l85 0 13 -33z m3957 -52 c0 -84 0 -85 25 -85 l25 0 0 -170 0 -170 -252
2 -253 3 -3 208 -2 208 29 -16 c39 -20 106 -19 142 2 15 9 39 36 51 60 l23 43
107 0 108 0 0 -85z m122 -107 c2 -142 6 -192 16 -196 9 -3 12 40 12 192 l0
196 105 0 104 0 20 -44 c24 -56 65 -79 130 -74 25 3 54 8 64 12 16 8 17 -5 17
-198 l0 -206 -252 2 -253 3 -3 253 c-2 246 -2 252 18 252 19 0 20 -8 22 -192z
m2508 180 c0 -7 -18 -56 -39 -108 -22 -52 -37 -98 -34 -102 2 -5 17 -8 32 -8
25 0 30 7 56 71 l27 70 42 -3 41 -3 0 -205 0 -205 -252 -3 -253 -2 0 206 c0
193 1 206 18 198 9 -4 40 -9 67 -12 49 -3 51 -5 69 -49 25 -59 117 -153 184
-187 56 -28 152 -46 152 -29 0 6 -19 13 -43 16 -102 14 -203 85 -258 182 -35
61 -36 72 -5 96 14 11 31 35 37 54 l13 35 73 0 c52 0 73 -4 73 -12z m444 -12
c3 -14 17 -37 30 -53 l24 -29 -24 -51 c-52 -108 -166 -196 -273 -210 l-41 -6
0 142 0 142 31 -3 c27 -3 33 -10 58 -68 24 -59 29 -65 59 -68 42 -4 41 5 -8
119 -22 51 -40 96 -40 101 0 4 40 8 89 8 86 0 89 -1 95 -24z m764 -228 l-3
-253 -252 -3 -253 -2 0 229 c0 153 4 239 12 256 l11 25 244 0 243 0 -2 -252z
m540 0 l-3 -253 -252 -3 -253 -2 0 255 0 255 255 0 255 0 -2 -252z m542 -3 l0
-255 -255 0 -255 0 0 255 0 255 255 0 255 0 0 -255z m540 0 l0 -255 -252 2
-253 3 -3 253 -2 252 255 0 255 0 0 -255z m540 0 l0 -255 -252 2 -253 3 -3
253 -2 252 255 0 255 0 0 -255z m540 0 l0 -255 -252 2 -253 3 -3 253 -2 252
255 0 255 0 0 -255z m-8850 220 c0 -24 1 -24 98 -27 l97 -3 0 -220 0 -220
-252 -3 -253 -2 0 206 c0 160 3 205 13 202 7 -3 13 -26 15 -56 3 -48 5 -52 28
-52 22 0 24 4 24 45 0 43 1 45 29 45 38 0 93 38 110 78 13 28 19 32 53 32 34
0 38 -3 38 -25z m525 -12 c22 -40 68 -73 103 -73 19 0 22 -5 22 -45 0 -41 2
-45 25 -45 23 0 25 3 25 50 0 28 2 50 4 50 2 0 12 3 20 6 15 6 16 -14 14 -197
l-3 -204 -252 -3 -253 -2 0 225 0 225 105 0 105 0 0 25 c0 22 4 25 33 25 27 0
36 -6 52 -37z m-1415 -228 l0 -235 -252 2 -253 3 -3 210 c-1 116 0 220 3 233
l5 22 250 0 250 0 0 -235z m545 213 c3 -13 4 -117 3 -233 l-3 -210 -252 -3
-253 -2 0 235 0 235 250 0 250 0 5 -22z m1623 -210 l-3 -233 -252 -3 -253 -2
0 228 c0 126 3 232 7 235 3 4 118 7 255 7 l248 0 -2 -232z m540 0 l-3 -233
-252 -3 -253 -2 0 235 0 235 255 0 255 0 -2 -232z m1622 -3 l0 -235 -252 2
-253 3 -3 210 c-1 116 0 220 3 233 l5 22 250 0 250 0 0 -235z m540 0 l0 -235
-252 2 -253 3 -3 233 -2 232 255 0 255 0 0 -235z m540 0 l0 -235 -252 2 -253
3 -3 233 -2 232 255 0 255 0 0 -235z m-6960 -36 c0 -186 -1 -200 -17 -197 -16
3 -18 22 -21 211 -2 206 -2 208 18 197 19 -10 20 -20 20 -211z m1010 6 l0
-205 -252 2 -253 3 -3 58 -3 57 39 0 c97 0 252 117 303 229 l22 48 46 -4 c25
-3 57 0 71 6 14 5 26 10 28 10 1 1 2 -91 2 -204z m7038 3 c-3 -184 -5 -203
-20 -206 -17 -3 -18 11 -18 196 0 199 1 208 33 211 4 1 6 -90 5 -201z m-148
-8 l0 -200 -180 0 -180 0 0 59 0 58 45 5 c107 13 239 114 285 221 14 31 26 57
28 57 1 0 2 -90 2 -200z m-9050 -485 l0 -255 -255 0 -255 0 0 255 0 255 255 0
255 0 0 -255z m540 0 l0 -255 -255 0 -255 0 0 255 0 255 255 0 255 0 0 -255z
m540 0 l0 -255 -255 0 -255 0 0 255 0 255 255 0 255 0 0 -255z m70 0 c0 -248
-1 -255 -20 -255 -19 0 -20 7 -20 255 0 248 1 255 20 255 19 0 20 -7 20 -255z
m470 0 l0 -255 -180 0 -180 0 0 255 0 255 180 0 180 0 0 -255z m540 20 l0
-235 -23 0 c-13 0 -32 -9 -42 -20 -18 -19 -29 -20 -229 -18 l-211 3 -3 253 -2
252 255 0 255 0 0 -235z m540 0 l0 -235 -255 0 -255 0 0 235 0 235 255 0 255
0 0 -235z m550 16 c0 -121 -3 -226 -6 -235 -5 -14 -37 -16 -255 -16 l-249 0 0
235 0 235 255 0 255 0 0 -219z m540 -6 l0 -225 -99 0 -100 0 -3 -27 c-3 -24
-8 -28 -38 -31 -33 -3 -37 0 -48 33 -27 73 -117 111 -184 77 l-38 -20 0 209 0
209 255 0 255 0 0 -225z m540 19 c0 -161 -3 -205 -12 -200 -70 28 -86 29 -135
5 -34 -17 -55 -36 -71 -66 -19 -36 -29 -43 -53 -43 -26 0 -29 4 -29 30 l0 30
-105 0 -105 0 0 225 0 225 255 0 255 0 0 -206z m540 -29 l0 -235 -252 2 -253
3 -3 233 -2 232 255 0 255 0 0 -235z m540 0 l0 -235 -255 0 -255 0 0 235 0
235 255 0 255 0 0 -235z m538 73 l-3 -161 -40 -14 c-52 -18 -111 -76 -128
-127 -13 -38 -16 -41 -55 -44 -38 -3 -42 0 -58 30 -25 51 -54 77 -96 89 -32 8
-46 6 -83 -10 l-45 -20 0 210 0 209 255 0 255 0 -2 -162z m542 -43 c0 -113 -2
-205 -4 -205 -2 0 -21 7 -41 16 -35 14 -42 14 -80 0 -47 -19 -79 -48 -94 -88
-9 -24 -16 -28 -49 -28 -37 0 -39 2 -51 41 -17 57 -84 122 -144 138 l-47 14 0
158 0 159 255 0 255 0 0 -205z m540 -30 l0 -235 -249 0 c-218 0 -250 2 -255
16 -3 9 -6 114 -6 235 l0 219 255 0 255 0 0 -235z m540 0 l0 -235 -255 0 -255
0 0 235 0 235 255 0 255 0 0 -235z m540 0 l0 -235 -255 0 -255 0 0 235 0 235
255 0 255 0 0 -235z m548 -17 l-3 -253 -216 -3 c-205 -2 -216 -1 -234 18 -10
11 -26 20 -37 20 -17 0 -18 13 -18 235 l0 235 255 0 255 0 -2 -252z m392 -3
l0 -255 -180 0 -180 0 0 255 0 255 180 0 180 0 0 -255z m148 3 c-3 -232 -4
-253 -20 -256 -17 -3 -18 14 -18 252 0 250 0 256 20 256 20 0 20 -5 18 -252z
m542 -3 l0 -255 -255 0 -255 0 0 255 0 255 255 0 255 0 0 -255z m540 0 l0
-255 -255 0 -255 0 0 255 0 255 255 0 255 0 0 -255z m540 0 l0 -255 -255 0
-255 0 0 255 0 255 255 0 255 0 0 -255z m540 0 l0 -255 -255 0 -255 0 0 255 0
255 255 0 255 0 0 -255z m540 0 l0 -255 -252 2 -253 3 -3 253 -2 252 255 0
255 0 0 -255z m540 0 l0 -255 -252 2 -253 3 -3 253 -2 252 255 0 255 0 0 -255z
m-12440 -540 l0 -255 -255 0 -255 0 0 255 0 255 255 0 255 0 0 -255z m540 0
l0 -255 -255 0 -255 0 0 255 0 255 255 0 255 0 0 -255z m540 23 c0 -128 -3
-243 -6 -255 l-6 -23 -249 0 -249 0 0 255 0 255 255 0 255 0 0 -232z m70 32
c0 -189 -1 -200 -20 -210 -20 -11 -20 -8 -20 200 0 203 1 210 20 210 19 0 20
-7 20 -200z m470 -25 l0 -224 -97 -3 -98 -3 -3 -27 c-3 -24 -8 -28 -35 -28
-27 0 -35 6 -50 40 -10 22 -32 48 -48 57 l-29 17 0 198 0 198 180 0 180 0 0
-225z m407 207 c-15 -16 -17 -45 -17 -201 l0 -183 -26 -21 c-15 -11 -33 -36
-41 -54 -12 -30 -18 -34 -46 -31 -27 2 -33 8 -35 31 l-3 27 -105 0 -104 0 0
225 0 225 197 0 c189 0 196 -1 180 -18z m3744 -18 c14 -73 98 -154 157 -154
22 0 22 -3 22 -160 l0 -160 -255 0 -255 0 0 210 0 211 30 -16 c39 -20 105 -19
141 2 16 10 39 37 50 61 20 41 23 43 62 40 37 -3 42 -6 48 -34z m505 -4 c27
-68 112 -99 188 -70 l26 10 0 -205 0 -205 -255 0 -256 0 3 157 3 158 35 5 c19
4 45 11 56 18 38 20 84 82 96 128 12 42 14 44 50 44 35 0 39 -3 54 -40z m2384
-185 l0 -225 -99 0 -100 0 -3 -27 c-3 -24 -8 -28 -38 -31 -33 -3 -37 0 -49 33
-7 19 -26 45 -42 57 l-29 22 0 175 c0 166 -1 176 -22 198 l-21 23 201 0 202 0
0 -225z m390 27 l0 -198 -29 -22 c-16 -12 -35 -37 -42 -57 -11 -30 -17 -35
-46 -35 -30 0 -33 3 -33 30 l0 30 -105 0 -105 0 0 225 0 225 180 0 180 0 0
-198z m150 -7 c0 -113 -2 -205 -4 -205 -2 0 -11 3 -20 6 -14 5 -16 33 -16 205
0 192 1 199 20 199 19 0 20 -7 20 -205z m540 -50 l0 -255 -242 0 -243 0 -12
27 c-9 19 -13 94 -13 255 l0 228 255 0 255 0 0 -255z m540 0 l0 -255 -255 0
-255 0 0 255 0 255 255 0 255 0 0 -255z m540 0 l0 -255 -255 0 -255 0 0 255 0
255 255 0 255 0 0 -255z m540 0 l0 -255 -255 0 -255 0 0 255 0 255 255 0 255
0 0 -255z m540 0 l0 -255 -255 0 -255 0 0 255 0 255 255 0 255 0 0 -255z m540
0 l0 -255 -252 2 -253 3 -3 253 -2 252 255 0 255 0 0 -255z m-8848 218 l3 -28
98 -3 97 -3 -2 -217 -3 -217 -252 -3 -253 -2 0 205 c0 113 4 205 8 205 5 0 17
-7 28 -15 25 -19 77 -19 113 0 34 17 81 70 81 91 0 10 12 14 39 14 36 0 40 -3
43 -27z m521 -8 c32 -67 133 -106 181 -70 11 8 23 15 28 15 4 0 8 -92 8 -205
l0 -205 -255 0 -255 0 0 220 0 219 103 3 102 3 3 28 c3 23 8 27 36 27 27 0 35
-6 49 -35z m-1413 -230 l0 -235 -243 0 -244 0 -11 39 c-7 23 -12 115 -12 235
l0 196 255 0 255 0 0 -235z m545 213 c3 -13 4 -117 3 -233 l-3 -210 -252 -3
-253 -2 0 235 0 235 250 0 250 0 5 -22z m1625 -213 l0 -235 -255 0 -255 0 0
228 c0 126 3 232 7 235 3 4 118 7 255 7 l248 0 0 -235z m540 0 l0 -235 -255 0
-255 0 0 235 0 235 255 0 255 0 0 -235z m1620 0 l0 -235 -255 0 -255 0 0 219
c0 121 3 226 6 235 5 14 37 16 255 16 l249 0 0 -235z m540 0 l0 -235 -252 2
-253 3 -3 233 -2 232 255 0 255 0 0 -235z m538 3 l-3 -233 -250 0 -250 0 -3
233 -2 232 255 0 255 0 -2 -232z m-8108 -523 l0 -255 -255 0 -255 0 0 255 0
255 255 0 255 0 0 -255z m540 0 l0 -255 -255 0 -255 0 0 255 0 255 255 0 255
0 0 -255z m534 233 c3 -13 6 -128 6 -255 l0 -233 -255 0 -255 0 0 255 0 255
249 0 249 0 6 -22z m1631 -200 c4 -123 5 -236 4 -253 l-4 -30 -257 -3 -258 -2
0 215 c0 144 4 229 12 255 l13 40 241 0 242 0 7 -222z m545 -33 l0 -255 -260
0 -260 0 0 255 0 255 260 0 260 0 0 -255z m540 0 l0 -255 -257 2 -258 3 -3 80
c-2 44 0 158 3 253 l7 172 254 0 254 0 0 -255z m540 0 l0 -255 -255 0 -255 0
0 255 0 255 255 0 255 0 0 -255z m540 0 l0 -255 -255 0 -255 0 0 255 0 255
255 0 255 0 0 -255z m540 0 l0 -255 -255 0 -255 0 0 255 0 255 255 0 255 0 0
-255z m540 0 l0 -255 -255 0 -255 0 0 255 0 255 255 0 255 0 0 -255z m540 0
l0 -255 -255 0 -255 0 0 255 0 255 255 0 255 0 0 -255z m540 0 l0 -255 -255 0
-255 0 0 255 0 255 255 0 255 0 0 -255z m540 0 l0 -255 -255 0 -255 0 0 255 0
255 255 0 255 0 0 -255z m538 -3 l2 -252 -252 2 -253 3 -3 253 -2 252 252 -2
253 -3 3 -253z m1632 3 l0 -255 -255 0 -255 0 0 222 c0 147 4 233 12 255 l12
33 243 0 243 0 0 -255z m540 0 l0 -255 -255 0 -255 0 0 255 0 255 255 0 255 0
0 -255z m540 0 l0 -255 -255 0 -255 0 0 255 0 255 255 0 255 0 0 -255z m540 0
l0 -255 -255 0 -255 0 0 255 0 255 255 0 255 0 0 -255z m540 0 l0 -255 -255 0
-255 0 0 255 0 255 255 0 255 0 0 -255z m540 0 l0 -255 -255 0 -255 0 0 255 0
255 255 0 255 0 0 -255z m-11018 218 l3 -28 98 -3 97 -3 0 -219 0 -220 -180 0
-180 0 0 198 0 199 24 11 c14 6 35 29 48 51 19 34 28 41 55 41 27 0 32 -4 35
-27z m527 -8 c7 -20 23 -43 37 -51 l24 -16 0 -199 0 -199 -180 0 -180 0 0 220
0 220 105 0 105 0 0 30 c0 28 2 30 38 30 34 0 39 -3 51 -35z m6511 5 l0 -30
100 0 100 0 -2 -217 -3 -218 -177 -3 -178 -2 0 195 0 196 35 30 c19 17 38 42
41 55 5 20 12 24 45 24 37 0 39 -2 39 -30z m521 -3 c34 -69 135 -108 183 -72
11 8 23 15 28 15 4 0 8 -92 8 -205 l0 -205 -255 0 -255 0 0 220 0 219 103 3
102 3 3 28 c3 23 8 27 35 27 26 0 35 -7 48 -33z m-7831 -267 c0 -193 -1 -200
-20 -200 -19 0 -20 7 -20 210 0 208 0 211 20 200 19 -10 20 -21 20 -210z
m-1150 -485 l0 -255 -255 0 -255 0 0 255 0 255 255 0 255 0 0 -255z m540 0 l0
-255 -255 0 -255 0 0 255 0 255 255 0 255 0 0 -255z m540 0 l0 -255 -255 0
-255 0 0 255 0 255 255 0 255 0 0 -255z m70 0 c0 -248 -1 -255 -20 -255 -19 0
-20 7 -20 255 0 248 1 255 20 255 19 0 20 -7 20 -255z m470 0 l0 -255 -180 0
-180 0 0 255 0 255 180 0 180 0 0 -255z m390 23 c0 -224 1 -232 22 -255 l21
-23 -201 0 -202 0 0 255 0 255 180 0 180 0 0 -232z m700 13 c0 -121 -3 -226
-6 -235 -5 -14 -38 -16 -260 -16 l-254 0 0 235 0 235 260 0 260 0 0 -219z
m540 59 l0 -159 -50 -22 c-58 -25 -112 -81 -130 -133 -11 -34 -14 -36 -56 -36
-32 0 -44 4 -44 15 0 26 -61 84 -101 96 -32 10 -46 9 -82 -5 -23 -9 -46 -16
-50 -16 -4 0 -7 95 -7 210 l0 210 260 0 260 0 0 -160z m540 -50 c0 -115 -2
-210 -4 -210 -2 0 -21 7 -41 16 -68 28 -146 -6 -175 -76 -12 -28 -16 -31 -54
-28 -37 3 -41 6 -50 38 -15 50 -83 114 -144 134 l-52 18 0 152 c0 84 3 156 7
159 3 4 120 7 260 7 l253 0 0 -210z m540 -25 l0 -235 -255 0 -255 0 0 235 0
235 255 0 255 0 0 -235z m540 0 l0 -235 -255 0 -255 0 0 235 0 235 255 0 255
0 0 -235z m540 10 l0 -224 -97 -3 -98 -3 -3 -27 c-3 -24 -8 -28 -36 -28 -27 0
-36 6 -54 39 -27 47 -41 60 -89 76 -32 11 -42 10 -81 -6 -24 -11 -46 -19 -48
-19 -2 0 -4 95 -4 210 l0 210 255 0 255 0 0 -225z m540 14 l0 -211 -22 14
c-38 24 -69 28 -107 12 -47 -20 -71 -42 -88 -81 -11 -28 -18 -33 -48 -33 -32
0 -35 2 -35 30 l0 30 -105 0 -105 0 0 225 0 225 255 0 255 0 0 -211z m540 -24
l0 -235 -252 2 -253 3 -3 233 -2 232 255 0 255 0 0 -235z m540 160 c0 -72 -1
-75 -24 -75 -53 0 -152 -41 -209 -85 -51 -40 -73 -68 -122 -150 -9 -15 -15
-16 -32 -6 -17 9 -31 7 -68 -9 -26 -11 -49 -20 -51 -20 -2 0 -4 95 -4 210 l0
210 255 0 255 0 0 -75z m540 -136 c0 -183 -2 -210 -14 -200 -27 22 -70 28
-107 15 l-36 -12 -22 45 c-49 102 -174 195 -282 209 l-49 7 0 73 0 74 255 0
255 0 0 -211z m540 -24 l0 -235 -249 0 -249 0 -6 23 c-3 12 -6 118 -6 235 l0
212 255 0 255 0 0 -235z m550 -20 l0 -255 -202 0 -201 0 21 23 c21 23 22 31
22 255 l0 232 180 0 180 0 0 -255z m540 0 l0 -255 -255 0 -255 0 0 255 0 255
255 0 255 0 0 -255z m540 0 l0 -255 -255 0 -255 0 0 255 0 255 255 0 255 0 0
-255z m540 0 l0 -255 -255 0 -255 0 0 255 0 255 255 0 255 0 0 -255z m540 0
l0 -255 -255 0 -255 0 0 255 0 255 255 0 255 0 0 -255z m540 0 l0 -255 -255 0
-255 0 0 255 0 255 255 0 255 0 0 -255z m540 0 l0 -255 -255 0 -255 0 0 255 0
255 255 0 255 0 0 -255z m540 0 l0 -255 -255 0 -255 0 0 255 0 255 255 0 255
0 0 -255z m-5410 11 c0 -62 -3 -74 -17 -78 -12 -3 -30 -37 -52 -97 l-33 -91
-83 0 c-78 0 -84 2 -90 23 -4 12 -21 36 -38 54 l-30 32 32 50 c56 87 128 141
221 167 89 24 90 24 90 -60z m177 33 c70 -34 155 -118 173 -174 10 -30 9 -39
-9 -64 -12 -16 -21 -36 -21 -45 0 -15 -13 -16 -101 -14 l-101 3 -44 103 c-35
82 -44 115 -44 161 0 32 3 61 7 64 12 12 76 -4 140 -34z m-7207 -584 l0 -255
-255 0 -255 0 0 255 0 255 255 0 255 0 0 -255z m540 0 l0 -255 -255 0 -255 0
0 255 0 255 255 0 255 0 0 -255z m540 0 l0 -255 -255 0 -255 0 0 255 0 255
255 0 255 0 0 -255z m70 0 c0 -248 -1 -255 -20 -255 -19 0 -20 7 -20 255 0
248 1 255 20 255 19 0 20 -7 20 -255z m470 0 l0 -255 -180 0 -180 0 0 255 0
255 180 0 180 0 0 -255z m485 235 c10 -11 26 -20 37 -20 17 0 18 -13 18 -235
l0 -235 -255 0 -255 0 0 255 0 255 218 0 c206 0 220 -1 237 -20z m967 -37 c23
-63 91 -129 142 -138 l36 -7 0 -154 0 -154 -260 0 -260 0 0 206 0 206 23 -7
c12 -4 48 -10 80 -12 56 -5 59 -4 97 35 22 22 40 49 40 61 0 20 5 22 41 19 40
-3 42 -5 61 -55z m500 15 c27 -57 68 -81 131 -76 29 2 60 8 70 12 16 8 17 -5
17 -198 l0 -206 -260 0 -260 0 0 155 0 155 25 0 c68 0 157 80 177 158 10 42
12 43 47 40 30 -3 39 -9 53 -40z m3338 34 c0 -4 -15 -46 -34 -93 -54 -134 -53
-129 -13 -129 34 0 35 2 58 65 l23 65 43 0 43 0 0 -141 0 -142 -47 7 c-110 14
-231 105 -281 208 l-20 43 33 35 c19 19 37 47 40 63 7 26 9 27 81 27 41 0 74
-4 74 -8z m445 -29 c9 -21 23 -45 31 -55 15 -15 14 -21 -2 -64 -38 -100 -170
-203 -281 -220 l-43 -7 0 142 0 141 33 0 c32 0 35 -4 59 -62 24 -60 28 -63 62
-66 20 -2 36 -1 36 3 0 3 -11 32 -24 63 -14 32 -33 81 -44 110 l-20 52 89 0
89 0 15 -37z m1305 -218 l0 -255 -255 0 -255 0 0 235 c0 222 1 235 18 235 11
0 27 9 37 20 17 19 31 20 237 20 l218 0 0 -255z m540 0 l0 -255 -255 0 -255 0
0 255 0 255 255 0 255 0 0 -255z m540 0 l0 -255 -255 0 -255 0 0 255 0 255
255 0 255 0 0 -255z m540 0 l0 -255 -255 0 -255 0 0 255 0 255 255 0 255 0 0
-255z m540 0 l0 -255 -255 0 -255 0 0 255 0 255 255 0 255 0 0 -255z m540 0
l0 -255 -255 0 -255 0 0 255 0 255 255 0 255 0 0 -255z m540 0 l0 -255 -255 0
-255 0 0 255 0 255 255 0 255 0 0 -255z m540 0 l0 -255 -255 0 -255 0 0 255 0
255 255 0 255 0 0 -255z m-7230 215 l0 -30 100 0 100 0 0 -220 0 -220 -180 0
-180 0 0 195 0 195 25 16 c14 9 35 34 47 55 18 33 27 39 55 39 30 0 33 -3 33
-30z m526 -5 c9 -20 27 -44 40 -54 24 -19 24 -21 24 -215 l0 -196 -180 0 -180
0 0 220 0 220 105 0 105 0 0 30 c0 28 3 30 35 30 29 0 36 -5 51 -35z m-3032
-11 c3 -9 6 -114 6 -235 l0 -219 -260 0 -260 0 0 235 0 235 254 0 c222 0 255
-2 260 -16z m1626 -219 l0 -235 -255 0 -255 0 0 235 0 235 255 0 255 0 0 -235z
m540 0 l0 -235 -255 0 -255 0 0 235 0 235 255 0 255 0 0 -235z m1620 0 l0
-235 -255 0 -255 0 0 219 c0 121 3 226 6 235 5 14 37 16 255 16 l249 0 0 -235z
m1620 0 l0 -235 -255 0 -255 0 0 213 c0 116 3 222 6 235 l6 22 249 0 249 0 0
-235z m-3182 163 c9 -9 12 -68 12 -205 0 -186 -1 -193 -20 -193 -19 0 -20 7
-20 205 0 113 4 205 8 205 4 0 13 -5 20 -12z m1022 -193 c0 -198 -1 -205 -20
-205 -19 0 -20 7 -20 191 0 171 2 193 18 205 9 7 18 14 20 14 1 0 2 -92 2
-205z m606 190 c16 -8 48 -15 70 -15 39 0 42 -2 58 -43 41 -107 191 -217 297
-217 l49 0 0 -60 0 -60 -255 0 -255 0 0 205 c0 113 2 205 4 205 2 0 17 -7 32
-15z m1014 -190 l0 -205 -255 0 -255 0 0 59 0 59 53 4 c28 3 75 15 102 28 64
31 153 121 184 187 l24 52 46 -5 c30 -3 55 0 71 10 14 8 26 14 28 15 1 1 2
-91 2 -204z m-7570 -490 l0 -255 -255 0 -255 0 0 255 0 255 255 0 255 0 0
-255z m540 0 l0 -255 -255 0 -255 0 0 255 0 255 255 0 255 0 0 -255z m540 0
l0 -255 -255 0 -255 0 0 255 0 255 255 0 255 0 0 -255z m70 0 c0 -248 -1 -255
-20 -255 -19 0 -20 7 -20 255 0 248 1 255 20 255 19 0 20 -7 20 -255z m470 20
l0 -235 -180 0 -180 0 0 235 0 235 180 0 180 0 0 -235z m540 0 l0 -235 -255 0
-255 0 0 235 0 235 255 0 255 0 0 -235z m548 180 c2 -27 1 -132 -3 -232 l-7
-183 -254 0 -254 0 0 228 c0 126 3 232 7 236 4 3 119 5 257 4 l251 -3 3 -50z
m542 -4 l0 -58 -49 -7 c-112 -15 -251 -119 -301 -225 -22 -48 -26 -51 -51 -46
-18 4 -45 -1 -74 -14 l-45 -20 0 215 0 214 260 0 260 0 0 -59z m540 -151 c0
-115 -2 -210 -4 -210 -2 0 -20 7 -41 16 -20 8 -49 13 -64 9 -24 -5 -28 -1 -50
47 -50 109 -190 211 -310 225 l-51 6 0 52 c0 28 3 55 7 58 3 4 120 7 260 7
l253 0 0 -210z m540 -25 l0 -235 -255 0 -255 0 0 235 0 235 255 0 255 0 0
-235z m540 0 l0 -235 -255 0 -255 0 0 235 0 235 255 0 255 0 0 -235z m70 0 c0
-228 -1 -235 -20 -235 -19 0 -20 7 -20 235 0 228 1 235 20 235 19 0 20 -7 20
-235z m470 -20 l0 -255 -197 0 c-189 0 -196 1 -180 18 15 16 17 49 17 255 l0
237 180 0 180 0 0 -255z m390 0 l0 -255 -180 0 -180 0 0 255 0 255 180 0 180
0 0 -255z m150 0 c0 -248 -1 -255 -20 -255 -19 0 -20 7 -20 255 0 248 1 255
20 255 19 0 20 -7 20 -255z m540 0 l0 -255 -255 0 -255 0 0 255 0 255 255 0
255 0 0 -255z m540 0 l0 -255 -255 0 -255 0 0 255 0 255 255 0 255 0 0 -255z
m540 0 l0 -255 -255 0 -255 0 0 255 0 255 255 0 255 0 0 -255z m540 0 l0 -255
-255 0 -255 0 0 248 c0 137 3 252 7 255 3 4 118 7 255 7 l248 0 0 -255z m548
-2 l2 -253 -255 0 -255 0 0 255 0 255 253 -2 252 -3 3 -252z m542 2 l0 -255
-255 0 -255 0 0 255 0 255 255 0 255 0 0 -255z m540 0 l0 -255 -255 0 -255 0
0 255 0 255 255 0 255 0 0 -255z m540 0 l0 -255 -255 0 -255 0 0 255 0 255
255 0 255 0 0 -255z m540 0 l0 -255 -255 0 -255 0 0 255 0 255 255 0 255 0 0
-255z m540 0 l0 -255 -255 0 -255 0 0 255 0 255 255 0 255 0 0 -255z m540 0
l0 -255 -255 0 -255 0 0 255 0 255 255 0 255 0 0 -255z m540 0 l0 -255 -255 0
-255 0 0 255 0 255 255 0 255 0 0 -255z m-9190 -70 l0 -185 -24 0 c-25 0 -39
29 -89 175 -11 32 -20 41 -40 43 -16 2 -29 -2 -32 -10 -3 -7 11 -53 30 -102
19 -49 35 -93 35 -98 0 -4 -36 -8 -80 -8 -64 0 -80 3 -80 15 0 8 -17 33 -37
56 l-37 41 28 54 c59 112 187 200 294 203 l32 1 0 -185z m190 145 c74 -37 139
-101 173 -170 l25 -49 -39 -41 c-22 -22 -39 -47 -39 -55 0 -12 -17 -15 -80
-15 -44 0 -80 4 -80 8 0 5 18 52 39 105 22 52 37 98 33 101 -3 3 -16 6 -29 6
-26 0 -33 -13 -80 -140 -25 -65 -32 -75 -55 -78 l-26 -3 -7 174 c-4 97 -4 181
0 187 12 20 96 5 165 -30z m-3440 -615 l0 -255 -255 0 -255 0 0 255 0 255 255
0 255 0 0 -255z m540 0 l0 -255 -255 0 -255 0 0 255 0 255 255 0 255 0 0 -255z
m540 0 l0 -255 -255 0 -255 0 0 255 0 255 255 0 255 0 0 -255z m70 0 c0 -248
-1 -255 -20 -255 -19 0 -20 7 -20 255 0 248 1 255 20 255 19 0 20 -7 20 -255z
m2025 178 c15 -43 38 -98 51 -122 18 -32 24 -59 24 -106 0 -34 -2 -64 -5 -67
-3 -3 -27 -1 -53 3 -109 21 -217 101 -267 198 l-26 52 31 31 c17 17 34 43 37
59 l6 29 87 0 87 0 28 -77z m391 37 c9 -22 28 -50 42 -61 l26 -20 -24 -47
c-50 -95 -162 -181 -256 -197 -21 -4 -47 -9 -56 -12 -16 -4 -18 4 -18 73 0 54
4 80 14 88 8 6 31 57 52 114 l37 102 84 0 83 0 16 -40z m1844 -215 l0 -255
-255 0 -255 0 0 235 0 235 23 0 c13 0 32 9 42 20 17 19 31 20 232 20 l213 0 0
-255z m390 0 l0 -255 -180 0 -180 0 0 255 0 255 180 0 180 0 0 -255z m150 0
c0 -248 -1 -255 -20 -255 -19 0 -20 7 -20 255 0 248 1 255 20 255 19 0 20 -7
20 -255z m540 0 l0 -255 -255 0 -255 0 0 255 0 255 255 0 255 0 0 -255z m540
0 l0 -255 -255 0 -255 0 0 255 0 255 255 0 255 0 0 -255z m540 0 l0 -255 -255
0 -255 0 0 248 c0 137 3 252 7 255 3 4 118 7 255 7 l248 0 0 -255z m540 0 l0
-255 -255 0 -255 0 0 248 c0 137 3 252 7 255 3 4 118 7 255 7 l248 0 0 -255z
m548 -2 l2 -253 -255 0 -255 0 0 255 0 255 253 -2 252 -3 3 -252z m540 0 l2
-253 -255 0 -255 0 0 255 0 255 253 -2 252 -3 3 -252z m542 2 l0 -255 -255 0
-255 0 0 255 0 255 255 0 255 0 0 -255z m540 0 l0 -255 -255 0 -255 0 0 255 0
255 255 0 255 0 0 -255z m540 0 l0 -255 -255 0 -255 0 0 255 0 255 255 0 255
0 0 -255z m540 0 l0 -255 -255 0 -255 0 0 255 0 255 255 0 255 0 0 -255z m540
0 l0 -255 -255 0 -255 0 0 255 0 255 255 0 255 0 0 -255z m540 0 l0 -255 -255
0 -255 0 0 248 c0 137 3 252 7 255 3 4 118 7 255 7 l248 0 0 -255z m-10820
-20 l0 -235 -180 0 -180 0 0 235 0 235 180 0 180 0 0 -235z m540 0 l0 -235
-255 0 -255 0 0 235 0 235 255 0 255 0 0 -235z m540 0 l0 -235 -255 0 -255 0
0 235 0 235 255 0 255 0 0 -235z m1630 0 l0 -235 -255 0 -255 0 0 228 c0 126
3 232 7 235 3 4 118 7 255 7 l248 0 0 -235z m540 0 l0 -235 -255 0 -255 0 0
235 0 235 255 0 255 0 0 -235z m-2038 145 c47 0 48 -1 72 -47 52 -102 165
-185 294 -215 l52 -13 0 -52 0 -53 -255 0 -255 0 0 206 0 205 22 -15 c13 -9
43 -16 70 -16z m958 -180 l0 -200 -255 0 -255 0 0 53 0 52 57 14 c127 29 236
109 288 210 25 50 26 51 73 51 26 0 54 5 62 10 8 5 18 10 23 10 4 0 7 -90 7
-200z m-3790 -485 l0 -255 -255 0 -255 0 0 255 0 255 255 0 255 0 0 -255z
m540 0 l0 -255 -255 0 -255 0 0 255 0 255 255 0 255 0 0 -255z m540 0 l0 -255
-255 0 -255 0 0 255 0 255 255 0 255 0 0 -255z m70 18 c0 -206 2 -239 17 -255
15 -17 14 -18 -20 -18 l-37 0 0 248 c0 137 3 252 7 255 3 4 12 7 20 7 10 0 13
-46 13 -237z m470 2 l0 -235 -180 0 -180 0 0 235 0 235 180 0 180 0 0 -235z
m540 0 l0 -235 -255 0 -255 0 0 228 c0 126 3 232 7 235 3 4 118 7 255 7 l248
0 0 -235z m540 0 l0 -235 -255 0 -255 0 0 228 c0 126 3 232 7 235 3 4 118 7
255 7 l248 0 0 -235z m548 -2 l2 -233 -255 0 -255 0 0 235 0 235 253 -2 252
-3 3 -232z m540 0 l2 -233 -255 0 -255 0 0 235 0 235 253 -2 252 -3 3 -232z
m540 0 l2 -233 -255 0 -255 0 0 235 0 235 253 -2 252 -3 3 -232z m540 0 l2
-233 -255 0 -255 0 0 235 0 235 253 -2 252 -3 3 -232z m542 179 l0 -58 -57
-12 c-118 -24 -225 -104 -282 -211 -30 -57 -33 -59 -64 -55 -20 3 -45 -2 -69
-14 l-38 -20 0 214 0 214 255 0 255 0 0 -58z m390 -112 c0 -93 -2 -170 -3
-170 -2 0 -19 23 -38 51 -59 87 -203 169 -299 169 -18 0 -20 7 -20 60 l0 60
180 0 180 0 0 -170z m150 -40 c0 -208 0 -211 -20 -200 -19 10 -20 21 -20 210
0 193 1 200 20 200 19 0 20 -7 20 -210z m540 -45 l0 -255 -243 0 -243 0 -12
33 c-13 36 -18 458 -5 470 3 4 118 7 255 7 l248 0 0 -255z m540 0 l0 -255
-255 0 -255 0 0 248 c0 137 3 252 7 255 3 4 118 7 255 7 l248 0 0 -255z m540
0 l0 -255 -255 0 -255 0 0 248 c0 137 3 252 7 255 3 4 118 7 255 7 l248 0 0
-255z m540 0 l0 -255 -255 0 -255 0 0 248 c0 137 3 252 7 255 3 4 118 7 255 7
l248 0 0 -255z m548 -2 l2 -253 -255 0 -255 0 0 255 0 255 253 -2 252 -3 3
-252z m540 0 l2 -253 -255 0 -255 0 0 255 0 255 253 -2 252 -3 3 -252z m540 0
l2 -253 -255 0 -255 0 0 255 0 255 253 -2 252 -3 3 -252z m542 2 l0 -255 -255
0 -255 0 0 255 0 255 255 0 255 0 0 -255z m540 0 l0 -255 -255 0 -255 0 0 255
0 255 255 0 255 0 0 -255z m540 0 l0 -255 -255 0 -255 0 0 255 0 255 255 0
255 0 0 -255z m540 0 l0 -255 -255 0 -255 0 0 248 c0 137 3 252 7 255 3 4 118
7 255 7 l248 0 0 -255z m540 0 l0 -255 -255 0 -255 0 0 248 c0 137 3 252 7
255 3 4 118 7 255 7 l248 0 0 -255z m-7030 -70 l0 -185 -24 0 c-22 0 -28 10
-57 98 -17 53 -36 103 -42 110 -11 14 -53 16 -61 3 -3 -5 10 -51 29 -102 19
-52 35 -97 35 -101 0 -5 -33 -8 -73 -8 -72 0 -73 0 -91 33 -10 17 -29 41 -42
52 l-23 20 20 45 c24 54 109 144 162 171 35 18 127 47 155 48 9 1 12 -42 12
-184z m113 170 c32 -8 75 -24 96 -35 55 -28 130 -106 157 -164 l23 -49 -29
-27 c-16 -15 -32 -39 -36 -53 -6 -26 -8 -27 -85 -27 -43 0 -79 4 -79 9 0 5 16
51 35 102 38 97 36 116 -8 105 -21 -5 -31 -22 -62 -111 -36 -100 -39 -105 -66
-105 l-29 0 0 185 c0 144 3 185 13 185 7 0 39 -7 70 -15z m-5528 -645 l0 -255
-252 -3 -253 -2 0 260 0 260 253 -2 252 -3 0 -255z m540 0 l0 -255 -250 0
-250 0 -3 245 c-1 134 0 250 3 257 3 11 58 13 252 11 l248 -3 0 -255z m545 0
l0 -260 -252 2 -253 3 -3 245 c-1 134 0 250 3 257 3 10 62 13 255 13 l250 0 0
-260z m160 235 c23 -25 25 -25 202 -25 l178 0 0 -235 0 -235 -252 2 -253 3 -3
245 c-1 134 0 250 3 257 3 8 23 13 53 13 39 0 53 -5 72 -25z m4074 3 c9 -12
30 -62 47 -110 18 -48 36 -88 40 -88 5 0 9 -36 9 -79 l0 -80 -37 6 c-112 17
-237 103 -284 195 -24 48 -24 58 6 86 13 13 30 39 37 58 l12 34 77 0 c69 0 80
-3 93 -22z m423 -31 c13 -26 30 -50 38 -53 59 -23 -84 -200 -195 -241 -30 -11
-74 -24 -97 -28 l-43 -7 0 81 c0 58 4 81 13 81 6 0 26 37 42 81 17 45 38 95
48 111 17 28 19 29 94 26 l78 -3 22 -48z m753 -207 l0 -260 -252 2 -253 3 -3
205 c-2 136 1 223 9 258 l12 52 244 0 243 0 0 -260z m540 0 l0 -260 -252 2
-253 3 -3 245 c-1 134 0 250 3 257 3 10 62 13 255 13 l250 0 0 -260z m540 0
l0 -260 -252 2 -253 3 -3 245 c-1 134 0 250 3 257 3 10 62 13 255 13 l250 0 0
-260z m540 0 l0 -260 -252 2 -253 3 -3 245 c-1 134 0 250 3 257 3 10 62 13
255 13 l250 0 0 -260z m545 0 l0 -255 -252 -3 -253 -2 0 260 0 260 253 -2 252
-3 0 -255z m540 0 l0 -255 -252 -3 -253 -2 0 260 0 260 253 -2 252 -3 0 -255z
m540 0 l0 -255 -252 -3 -253 -2 0 260 0 260 253 -2 252 -3 0 -255z m540 0 l0
-255 -252 -3 -253 -2 0 260 0 260 253 -2 252 -3 0 -255z m540 0 l0 -255 -250
0 -250 0 -3 245 c-1 134 0 250 3 257 3 11 58 13 252 11 l248 -3 0 -255z m545
0 l0 -260 -252 2 -253 3 -3 245 c-1 134 0 250 3 257 3 10 62 13 255 13 l250 0
0 -260z m540 0 l0 -260 -252 2 -253 3 -3 245 c-1 134 0 250 3 257 3 10 62 13
255 13 l250 0 0 -260z m540 0 l0 -260 -252 2 -253 3 -3 245 c-1 134 0 250 3
257 3 10 62 13 255 13 l250 0 0 -260z m-10280 -25 l0 -235 -252 2 -253 3 -3
233 -2 232 255 0 255 0 0 -235z m540 0 l0 -235 -252 2 -253 3 -3 233 -2 232
255 0 255 0 0 -235z m548 3 l-3 -233 -252 -3 -253 -2 0 235 0 235 255 0 255 0
-2 -232z m540 0 l-3 -233 -252 -3 -253 -2 0 235 0 235 255 0 255 0 -2 -232z
m540 0 l-3 -233 -252 -3 -253 -2 0 235 0 235 255 0 255 0 -2 -232z m540 0 l-3
-233 -252 -3 -253 -2 0 235 0 235 255 0 255 0 -2 -232z m135 152 c41 0 44 -2
65 -46 50 -103 186 -203 298 -220 l45 -6 -3 -57 -3 -56 -252 -3 -253 -2 0 210
0 211 30 -16 c16 -8 49 -15 73 -15z m947 -185 l0 -205 -252 2 -253 3 -3 56 -3
56 50 7 c114 15 260 122 308 226 17 37 20 40 63 40 25 0 52 5 60 10 8 5 18 10
23 10 4 0 7 -92 7 -205z"/>
<path d="M1340 7035 c0 -300 2 -345 15 -345 13 0 15 26 15 170 l0 170 89 0 89
0 5 -28 c3 -15 18 -40 33 -55 22 -22 36 -27 76 -27 60 0 83 11 103 50 35 68 5
150 -63 171 -53 16 -122 -13 -141 -60 l-13 -31 -89 0 -89 0 0 165 c0 140 -2
165 -15 165 -13 0 -15 -45 -15 -345z"/>
<path d="M1240 7125 l0 -75 -93 0 -93 0 -16 33 c-20 42 -77 72 -121 63 -45 -9
-72 -30 -91 -71 -17 -35 -17 -40 -1 -80 20 -55 51 -75 114 -75 44 0 52 4 80
35 17 20 31 45 31 55 0 19 7 20 95 20 l95 0 0 -81 0 -80 28 3 27 3 3 163 2
162 -30 0 -30 0 0 -75z"/>
<path d="M1250 6174 c-61 -26 -110 -86 -110 -134 0 -17 -6 -20 -38 -20 -34 0
-39 3 -51 35 -16 46 -59 75 -111 75 -34 0 -48 -6 -76 -34 -29 -29 -34 -41 -34
-81 0 -42 5 -52 36 -81 29 -28 43 -34 79 -34 37 0 50 6 80 35 19 20 35 42 35
50 0 11 12 15 40 15 35 0 40 -3 40 -24 0 -31 38 -85 79 -113 40 -27 126 -31
170 -8 38 19 77 66 91 110 10 31 15 35 46 35 24 0 34 -4 34 -16 0 -9 15 -31
34 -50 39 -39 86 -45 136 -19 38 20 50 43 50 100 0 57 -12 80 -50 100 -66 34
-138 7 -166 -62 -12 -27 -20 -33 -43 -33 -25 0 -31 6 -41 35 -16 49 -57 95
-105 116 -48 22 -79 23 -125 3z m144 -29 l27 -18 -55 -56 -56 -56 -55 55 c-30
30 -52 57 -47 61 41 42 133 48 186 14z m-146 -88 l52 -53 -55 -54 -54 -54 -20
45 c-12 24 -21 54 -21 66 0 26 29 103 39 103 4 0 30 -24 59 -53z m209 16 c18
-45 13 -111 -12 -149 l-17 -26 -54 53 -54 53 52 53 c29 29 56 53 61 53 4 0 15
-17 24 -37z m-92 -133 c47 -48 48 -50 30 -65 -30 -22 -82 -29 -123 -16 -71 21
-72 25 -17 81 27 27 52 50 55 50 3 0 28 -22 55 -50z"/>
<path d="M1240 5080 l0 -171 -87 3 c-79 3 -88 5 -91 23 -6 31 -42 64 -83 76
-50 16 -105 -11 -132 -64 -19 -36 -19 -40 -2 -83 20 -52 54 -74 114 -74 49 0
101 39 101 76 0 24 2 24 90 24 l90 0 0 -165 c0 -103 4 -165 10 -165 6 0 10
122 10 345 0 223 -4 345 -10 345 -6 0 -10 -63 -10 -170z"/>
<path d="M1375 5238 c-10 -26 0 -673 10 -673 6 0 11 63 13 163 l2 162 80 0 80
0 13 -32 c18 -44 38 -59 86 -65 80 -11 131 34 131 115 0 50 -29 88 -80 103
-52 16 -107 -11 -133 -63 l-19 -38 -79 0 -79 0 0 164 c0 100 -4 167 -10 171
-6 3 -12 0 -15 -7z"/>
<path d="M891 3905 c-85 -73 -41 -205 69 -205 66 0 110 47 110 115 0 30 3 35
24 35 26 0 65 -41 67 -69 0 -9 7 -1 15 17 29 66 104 69 131 4 15 -37 16 -37
25 -12 24 64 81 80 117 34 12 -15 21 -34 22 -43 0 -9 7 -2 15 16 23 54 84 74
84 28 0 -72 53 -125 126 -125 28 0 44 8 70 34 29 29 34 41 34 79 0 38 -6 52
-34 81 -26 29 -41 36 -70 36 -44 0 -91 -22 -106 -50 -6 -10 -17 -17 -24 -14
-18 7 -72 -21 -79 -40 -5 -12 -12 -9 -36 14 -37 38 -65 38 -102 1 -27 -27 -30
-28 -39 -12 -5 10 -22 24 -39 30 -24 10 -34 10 -59 -3 -17 -9 -32 -21 -34 -28
-3 -9 -15 -4 -37 15 -18 15 -43 27 -56 27 -13 0 -28 6 -32 13 -31 51 -114 62
-162 22z"/>
<path d="M869 2795 c-38 -21 -59 -58 -59 -106 0 -33 6 -47 34 -75 29 -29 41
-34 81 -34 40 0 52 5 81 34 19 19 34 41 34 51 0 12 8 16 33 13 24 -2 33 -8 35
-25 3 -23 4 -23 182 -23 178 0 179 0 182 23 2 16 11 23 30 25 23 3 30 -3 44
-31 29 -62 101 -84 164 -52 38 20 50 43 50 100 0 57 -12 80 -52 101 -65 34
-145 -1 -169 -73 -9 -29 -15 -34 -37 -31 -22 2 -28 9 -30 36 l-3 32 -179 0
-179 0 -3 -32 c-3 -29 -7 -33 -35 -36 -25 -2 -33 1 -33 13 0 29 -30 74 -60 90
-36 19 -77 19 -111 0z m586 -105 l0 -45 -167 -3 -168 -2 0 50 0 50 168 -2 167
-3 0 -45z"/>
<path d="M1234 1862 c3 -5 41 -30 84 -56 69 -42 79 -52 79 -76 0 -40 20 -60
59 -60 25 0 38 7 50 25 24 36 69 34 89 -4 33 -66 102 -89 165 -56 38 20 50 43
50 100 0 57 -12 80 -50 100 -68 35 -146 3 -170 -70 -10 -29 -16 -35 -40 -35
-15 0 -30 6 -33 14 -3 8 -17 22 -30 30 -19 13 -30 14 -54 5 -29 -9 -38 -6
-112 40 -80 51 -97 59 -87 43z"/>
<path d="M894 1816 c-28 -28 -34 -42 -34 -75 0 -72 51 -121 124 -121 27 0 44
8 71 35 19 20 35 42 35 50 0 10 11 15 34 15 25 0 38 -6 50 -25 22 -33 78 -35
100 -3 23 32 20 54 -11 77 -31 25 -59 20 -88 -15 -14 -16 -31 -24 -52 -24 -26
0 -31 4 -37 31 -3 17 -19 44 -35 60 -24 24 -38 29 -76 29 -40 0 -52 -5 -81
-34z"/>
<path d="M20 1415 l0 -185 9463 0 c5205 0 9519 -3 9585 -7 l122 -6 0 191 0
192 -9585 0 -9585 0 0 -185z m18992 92 c43 42 81 74 85 70 4 -4 -27 -42 -69
-84 l-77 -77 76 -83 c41 -46 71 -83 66 -83 -4 0 -42 34 -83 75 l-75 75 -82
-82 c-46 -46 -83 -76 -83 -68 0 9 34 49 75 90 l75 75 -75 75 c-41 41 -75 82
-75 90 0 8 37 -22 83 -68 l82 -82 77 77z"/>
</g>
</svg>
