<?xml version="1.0" standalone="no"?>
<!DOCTYPE svg PUBLIC "-//W3C//DTD SVG 20010904//EN"
 "http://www.w3.org/TR/2001/REC-SVG-20010904/DTD/svg10.dtd">
<svg version="1.0" xmlns="http://www.w3.org/2000/svg"
 width="1919.000000pt" height="909.000000pt" viewBox="0 0 1919.000000 909.000000"
 preserveAspectRatio="xMidYMid meet">

<g transform="translate(0.000000,909.000000) scale(0.100000,-0.100000)"
fill="#000000" stroke="none">
<path d="M0 8842 l0 -249 443 -6 c243 -4 4561 -7 9595 -7 l9152 0 0 255 0 255
-9595 0 -9595 0 0 -248z m340 73 l0 -95 -45 0 -46 0 3 63 3 62 38 3 c34 3 37
6 37 33 0 16 2 29 5 29 3 0 5 -43 5 -95z m-132 -2 c3 -32 3 -33 -38 -33 -37 0
-41 -2 -38 -22 2 -18 12 -24 43 -29 l40 -7 -45 2 -45 1 -3 49 c-4 69 1 78 45
74 35 -3 38 -6 41 -35z m182 -23 l0 -60 30 0 30 0 0 60 c0 33 4 60 10 60 6 0
10 -28 10 -65 l0 -65 -44 0 c-31 0 -46 5 -50 16 -10 26 -7 114 4 114 6 0 10
-27 10 -60z m1355 40 c4 -6 -12 -10 -39 -10 -46 0 -46 0 -46 -35 0 -33 2 -35
38 -37 l37 -1 -37 -4 c-37 -4 -38 -5 -38 -44 0 -21 -4 -39 -10 -39 -6 0 -10
37 -10 90 l0 90 49 0 c28 0 53 -4 56 -10z m45 -86 c0 -49 -4 -84 -10 -84 -6 0
-10 37 -10 91 0 57 4 88 10 84 6 -3 10 -44 10 -91z m60 6 l0 -79 48 -4 c46 -3
46 -3 -10 -5 l-58 -2 0 91 c0 57 4 88 10 84 6 -3 10 -42 10 -85z m215 80 c4
-6 -12 -10 -39 -10 -44 0 -46 -1 -46 -30 0 -27 3 -30 29 -30 17 0 33 -4 36
-10 4 -6 -8 -10 -29 -10 -34 0 -36 -2 -36 -34 0 -34 1 -35 48 -39 46 -3 46 -3
-10 -5 l-58 -2 0 90 0 90 49 0 c28 0 53 -4 56 -10z m2175 0 c0 -5 -18 -10 -40
-10 -38 0 -40 -2 -40 -30 0 -27 3 -30 30 -30 17 0 30 -4 30 -10 0 -5 -13 -10
-30 -10 -28 0 -30 -3 -30 -34 0 -34 1 -35 48 -39 42 -3 41 -4 -15 -5 l-63 -2
0 74 c0 102 2 106 61 106 27 0 49 -4 49 -10z m155 -20 c14 -15 20 -34 20 -66
0 -60 -27 -84 -96 -84 l-49 0 0 74 c0 104 3 110 59 102 26 -3 55 -15 66 -26z
m75 -66 c0 -68 -3 -84 -15 -84 -12 0 -15 15 -15 74 0 79 6 109 21 100 5 -3 9
-43 9 -90z m150 86 c0 -5 -11 -10 -25 -10 -25 0 -25 -1 -25 -80 0 -103 -18
-105 -22 -2 -3 76 -3 77 -31 80 -15 2 -25 8 -22 13 8 12 125 12 125 -1z m2041
-73 l26 -71 22 60 c12 32 24 65 26 72 2 6 9 12 15 12 5 0 -4 -37 -20 -82 -17
-45 -30 -83 -30 -85 0 -2 -6 -3 -13 -3 -12 0 -67 139 -67 169 0 26 14 1 41
-72z m139 -13 c0 -49 -4 -84 -10 -84 -6 0 -10 37 -10 91 0 57 4 88 10 84 6 -3
10 -44 10 -91z m145 86 c4 -6 -12 -10 -39 -10 -44 0 -46 -1 -46 -30 0 -27 3
-30 29 -30 17 0 33 -4 36 -10 4 -6 -8 -10 -29 -10 -34 0 -36 -2 -36 -34 0 -34
1 -35 48 -39 46 -3 46 -3 -10 -5 l-58 -2 0 90 0 90 49 0 c28 0 53 -4 56 -10z
m55 -60 c7 -33 16 -60 20 -60 4 0 14 27 23 60 10 33 22 60 27 60 5 0 17 -27
26 -60 10 -32 20 -57 24 -55 4 2 13 29 20 60 15 62 37 89 28 34 -12 -69 -40
-150 -51 -146 -7 2 -19 29 -27 60 -8 31 -17 57 -21 57 -4 0 -13 -26 -21 -57
-19 -79 -37 -76 -60 12 -19 77 -22 109 -9 101 4 -3 14 -33 21 -66z m2180 24
c0 -34 0 -34 45 -34 45 0 45 0 45 35 0 19 5 35 10 35 6 0 10 -35 10 -85 0 -50
-4 -85 -10 -85 -5 0 -10 18 -10 40 l0 40 -45 0 -45 0 0 -40 c0 -29 -4 -40 -15
-40 -12 0 -15 15 -15 74 0 41 3 81 6 90 10 25 24 8 24 -30z m250 36 c0 -5 -18
-10 -40 -10 -38 0 -40 -2 -40 -30 0 -27 3 -30 30 -30 17 0 30 -4 30 -10 0 -5
-13 -10 -30 -10 -28 0 -30 -3 -30 -34 0 -34 1 -35 48 -39 42 -3 41 -4 -15 -5
l-63 -2 0 74 c0 102 2 106 61 106 27 0 49 -4 49 -10z m60 -80 l0 -79 48 -4
c42 -3 41 -4 -15 -5 l-63 -2 0 74 c0 41 3 81 6 90 13 34 24 1 24 -74z m207 68
c18 -14 16 -53 -3 -72 -8 -9 -29 -16 -45 -16 -27 0 -29 -3 -29 -35 0 -24 -5
-35 -15 -35 -12 0 -15 15 -15 74 0 103 4 110 53 102 23 -4 47 -12 54 -18z
m-9481 -140 c5 -8 -1 -9 -22 -5 -53 10 -61 -8 -15 -34 22 -13 41 -29 41 -34 0
-29 -45 -44 -84 -29 -31 12 -16 22 24 17 51 -7 51 6 0 35 -38 21 -49 40 -33
55 11 12 81 8 89 -5z m64 -48 c0 -33 -4 -60 -10 -60 -6 0 -10 27 -10 60 0 33
4 60 10 60 6 0 10 -27 10 -60z m188 -2 c2 -34 -1 -58 -7 -58 -5 0 -11 24 -13
52 -2 41 -7 54 -20 56 -15 3 -18 -5 -18 -52 0 -31 -4 -56 -10 -56 -5 0 -10 25
-10 55 0 48 -2 55 -20 55 -18 0 -20 -7 -20 -56 0 -77 -24 -69 -28 10 l-3 57
73 -3 73 -3 3 -57z"/>
<path d="M267 8933 c-4 -3 -7 -28 -7 -55 l0 -48 35 0 35 0 0 55 c0 54 -1 55
-28 55 -16 0 -32 -3 -35 -7z"/>
<path d="M137 8934 c-4 -4 -7 -16 -7 -26 0 -14 8 -18 36 -18 31 0 35 3 32 23
-2 15 -11 23 -28 25 -14 2 -29 0 -33 -4z"/>
<path d="M4300 8845 c0 -71 1 -75 23 -75 43 0 67 27 67 74 0 50 -22 76 -63 76
-27 0 -27 0 -27 -75z"/>
<path d="M9620 8885 c0 -32 2 -35 29 -35 21 0 32 6 36 20 9 27 -11 50 -41 50
-21 0 -24 -5 -24 -35z"/>
<path d="M4587 8544 c-4 -4 -7 -79 -7 -166 0 -152 1 -158 20 -158 20 0 20 5
18 162 -3 151 -9 184 -31 162z m23 -159 c0 -97 -4 -155 -10 -155 -6 0 -10 58
-10 155 0 97 4 155 10 155 6 0 10 -58 10 -155z"/>
<path d="M4727 8543 c-10 -9 -9 -323 1 -323 4 0 7 71 7 157 0 126 3 157 13
155 8 -1 11 2 7 8 -7 12 -19 13 -28 3z"/>
<path d="M7 8143 c-4 -3 -7 -98 -7 -210 l0 -203 1290 0 1290 0 0 -1195 0
-1195 90 0 89 0 3 158 c2 86 4 -696 5 -1738 1 -1042 3 -1952 3 -2022 0 -107 2
-128 15 -128 13 0 15 21 15 125 l0 125 255 0 255 0 0 -125 c0 -104 2 -125 15
-125 13 0 15 21 15 125 l0 125 255 0 255 0 0 -125 c0 -104 2 -125 15 -125 13
0 15 21 15 125 l0 125 255 0 255 0 0 -125 c0 -104 2 -125 15 -125 13 0 15 21
15 125 l0 125 255 0 255 0 0 -125 c0 -104 2 -125 15 -125 13 0 15 21 15 125
l0 125 255 0 255 0 0 -125 c0 -104 2 -125 15 -125 13 0 15 21 15 125 l0 125
255 0 255 0 0 -125 c0 -118 1 -125 20 -125 19 0 20 7 20 125 l0 125 255 0 255
0 0 -125 c0 -104 2 -125 15 -125 13 0 15 21 15 125 l0 125 255 0 255 0 0 -125
c0 -104 2 -125 15 -125 13 0 15 21 15 125 l0 125 255 0 255 0 0 -125 c0 -104
2 -125 15 -125 13 0 15 21 15 125 l0 125 255 0 255 0 0 -125 c0 -104 2 -125
15 -125 13 0 15 21 15 125 l0 125 255 0 255 0 0 -125 c0 -104 2 -125 15 -125
13 0 15 21 15 125 l0 125 255 0 255 0 0 -125 c0 -104 2 -125 15 -125 13 0 15
21 15 125 l0 125 255 0 255 0 0 -125 c0 -104 2 -125 15 -125 13 0 15 21 15
125 l0 125 255 0 255 0 0 -125 c0 -104 2 -125 15 -125 13 0 15 21 15 125 l0
125 255 0 255 0 0 -125 c0 -104 2 -125 15 -125 13 0 15 21 15 125 l0 125 255
0 255 0 0 -125 c0 -118 1 -125 20 -125 19 0 20 7 20 125 l0 125 255 0 255 0 0
-125 c0 -104 2 -125 15 -125 13 0 15 21 15 125 l0 125 255 0 255 0 0 -125 c0
-104 2 -125 15 -125 13 0 15 21 15 125 l0 125 255 0 255 0 0 -125 c0 -104 2
-125 15 -125 13 0 15 21 15 125 l0 125 255 0 255 0 0 -125 c0 -104 2 -125 15
-125 13 0 15 21 15 125 l0 125 255 0 255 0 0 -125 c0 -104 2 -125 15 -125 13
0 15 21 15 125 l0 125 255 0 255 0 0 -125 c0 -104 2 -125 15 -125 13 0 15 21
15 125 l0 125 255 0 255 0 0 -125 c0 -104 2 -125 15 -125 13 0 15 21 15 125
l0 125 255 0 255 0 0 -125 c0 -104 2 -125 15 -125 13 0 15 21 15 125 l0 125
70 0 c55 0 70 3 70 15 0 11 -16 15 -67 17 l-68 3 0 255 0 255 68 3 c51 2 67 6
67 17 0 12 -15 15 -70 15 l-70 0 2 253 3 252 68 3 c51 2 67 6 67 17 0 12 -15
15 -70 15 l-70 0 2 253 3 252 68 3 c51 2 67 6 67 17 0 12 -15 15 -70 15 l-70
0 2 253 3 252 68 3 c51 2 67 6 67 17 0 12 -15 15 -70 15 l-70 0 0 255 0 255
70 0 c56 0 70 3 70 15 0 12 -14 15 -70 15 l-70 0 0 255 0 255 70 0 c55 0 70 3
70 15 0 11 -16 15 -67 17 l-68 3 -3 253 -2 252 70 0 c55 0 70 3 70 15 0 11
-16 15 -67 17 l-68 3 -3 253 -2 252 70 0 c55 0 70 3 70 15 0 11 -16 15 -67 17
l-68 3 -3 253 -2 252 70 0 c55 0 70 3 70 15 0 11 -16 15 -67 17 l-68 3 -3 253
-2 252 70 0 c63 0 70 2 70 20 0 18 -7 20 -70 20 l-70 0 2 253 3 252 73 3 72 3
0 -61 0 -60 1548 -2 1547 -3 3 -3013 2 -3012 80 0 80 0 0 3240 0 3240 -1630 0
-1630 0 0 -150 0 -150 -75 0 -75 0 0 145 c0 122 -2 145 -15 145 -13 0 -15 -23
-15 -145 l0 -145 -255 0 -255 0 0 145 c0 122 -2 145 -15 145 -13 0 -15 -23
-15 -145 l0 -145 -255 0 -255 0 0 145 c0 122 -2 145 -15 145 -13 0 -15 -23
-15 -145 l0 -145 -255 0 -255 0 0 145 c0 122 -2 145 -15 145 -13 0 -15 -23
-15 -145 l0 -145 -255 0 -255 0 0 145 c0 122 -2 145 -15 145 -13 0 -15 -23
-15 -145 l0 -145 -255 0 -255 0 0 145 c0 122 -2 145 -15 145 -13 0 -15 -23
-15 -145 l0 -145 -255 0 -255 0 0 145 c0 122 -2 145 -15 145 -13 0 -15 -23
-15 -145 l0 -145 -255 0 -255 0 0 145 c0 122 -2 145 -15 145 -13 0 -15 -23
-15 -145 l0 -145 -255 0 -255 0 0 145 c0 138 -1 145 -20 145 -19 0 -20 -7 -20
-145 l0 -145 -255 0 -255 0 0 145 c0 122 -2 145 -15 145 -13 0 -15 -23 -15
-145 l0 -145 -255 0 -255 0 0 145 c0 122 -2 145 -15 145 -13 0 -15 -23 -15
-145 l0 -145 -255 0 -255 0 0 145 c0 122 -2 145 -15 145 -13 0 -15 -23 -15
-145 l0 -145 -255 0 -255 0 0 145 c0 122 -2 145 -15 145 -13 0 -15 -23 -15
-145 l0 -145 -255 0 -255 0 0 145 c0 122 -2 145 -15 145 -13 0 -15 -23 -15
-145 l0 -145 -255 0 -255 0 0 145 c0 122 -2 145 -15 145 -13 0 -15 -23 -15
-145 l0 -145 -255 0 -255 0 0 145 c0 122 -2 145 -15 145 -13 0 -15 -23 -15
-145 l0 -145 -255 0 -255 0 0 145 c0 122 -2 145 -15 145 -13 0 -15 -23 -15
-145 l0 -145 -255 0 -255 0 0 145 c0 122 -2 145 -15 145 -13 0 -15 -23 -15
-145 l0 -145 -255 0 -255 0 0 145 c0 138 -1 145 -20 145 -19 0 -20 -7 -20
-145 l0 -145 -255 0 -255 0 0 145 c0 122 -2 145 -15 145 -13 0 -15 -23 -15
-145 l0 -145 -255 0 -255 0 0 145 c0 122 -2 145 -15 145 -13 0 -15 -23 -15
-145 l0 -145 -255 0 -255 0 0 145 c0 122 -2 145 -15 145 -13 0 -15 -23 -15
-145 l0 -145 -255 0 -255 0 0 145 c0 122 -2 145 -15 145 -13 0 -15 -23 -15
-145 l0 -145 -255 0 -255 0 0 145 c0 122 -2 145 -15 145 -13 0 -15 -23 -15
-145 l0 -145 -255 0 -255 0 0 145 c0 121 -2 145 -15 145 -12 0 -15 -26 -18
-147 l-3 -148 -2 153 -2 152 -1373 0 c-756 0 -1377 -3 -1380 -7z m2482 -110
l71 -77 80 79 c44 43 83 76 87 72 4 -4 -29 -43 -72 -87 l-80 -80 80 -80 c44
-44 75 -80 70 -80 -5 0 -44 34 -85 75 l-75 75 -75 -75 c-41 -41 -81 -75 -90
-75 -8 0 22 37 68 83 l82 82 -75 75 c-41 41 -75 78 -75 82 0 20 22 2 89 -69z
m16589 -10 c43 43 81 74 85 70 4 -4 -27 -42 -70 -85 l-78 -78 78 -78 c43 -43
74 -81 70 -85 -4 -4 -42 27 -85 70 l-78 78 -80 -80 c-99 -98 -106 -83 -9 20
l71 75 -71 76 c-97 103 -90 118 9 19 l80 -80 78 78z m-18168 -23 c0 -5 -7 -10
-15 -10 -11 0 -15 -13 -17 -52 l-2 -53 -3 53 c-3 44 -7 52 -24 52 -10 0 -19 5
-19 10 0 6 18 10 40 10 22 0 40 -4 40 -10z m105 -16 c19 -21 25 -23 25 -10 0
39 79 40 94 0 24 -62 -50 -116 -87 -64 l-14 20 -18 -20 c-25 -27 -61 -25 -80
4 -27 41 -1 91 48 95 4 1 19 -11 32 -25z m155 -34 c0 -45 2 -49 28 -53 22 -3
20 -4 -10 -6 l-38 -1 0 61 c0 37 4 58 10 54 6 -3 10 -28 10 -55z m129 51 c8
-5 12 -18 8 -30 -8 -33 10 -34 22 -1 5 17 14 30 20 30 5 0 16 3 24 6 20 7 57
-30 57 -58 0 -50 -67 -78 -92 -39 -12 20 -12 20 -26 0 -8 -11 -25 -19 -43 -19
-29 0 -29 0 -29 60 0 56 2 60 23 60 12 0 28 -4 36 -9z m200 -11 c24 30 28 20
5 -15 -15 -23 -15 -27 0 -50 23 -35 19 -45 -5 -15 l-21 25 -18 -23 c-26 -32
-34 -27 -13 8 14 25 15 34 5 50 -19 31 -14 45 7 19 l19 -24 21 25z m15219 -2
c7 -7 12 -26 12 -43 0 -38 -16 -55 -50 -55 -34 0 -50 17 -50 55 0 38 16 55 50
55 14 0 31 -5 38 -12z m98 -18 c3 -67 4 -70 24 -70 17 0 20 7 20 50 0 28 5 50
10 50 6 0 10 -22 10 -50 0 -52 -21 -78 -49 -60 -8 4 -25 5 -40 0 -43 -12 -51
-3 -51 56 l0 55 38 -3 c32 -3 37 -7 38 -28z m132 23 c-33 -5 -37 -30 -6 -42
l22 -8 -22 -5 c-35 -10 -27 -38 11 -39 l32 -1 -30 -7 c-48 -11 -55 -4 -55 55
l0 54 38 -1 c30 -2 32 -3 10 -6z m122 -1 c0 -4 -12 -8 -27 -7 -26 0 -28 -3
-28 -40 0 -39 1 -40 32 -39 18 1 30 -2 27 -7 -8 -13 -58 -11 -72 3 -7 7 -12
26 -12 43 0 17 5 36 12 43 13 13 68 17 68 4z m88 1 c-14 -3 -18 -15 -18 -54 0
-27 -4 -49 -10 -49 -5 0 -10 22 -10 49 0 39 -4 51 -17 54 -10 3 2 5 27 5 25 0
37 -2 28 -5z m139 -9 c8 -22 -9 -48 -36 -52 -13 -2 -21 -11 -21 -23 0 -10 -4
-19 -10 -19 -5 0 -10 25 -10 55 l0 55 35 0 c24 0 38 -5 42 -16z m86 -28 c-2
-22 2 -45 8 -53 7 -8 8 -13 1 -13 -5 0 -17 11 -26 25 -18 28 -36 25 -36 -6 0
-10 -4 -19 -10 -19 -5 0 -10 25 -10 56 l0 55 38 -3 c36 -3 37 -4 35 -42z m115
32 c7 -7 12 -26 12 -43 0 -38 -16 -55 -50 -55 -34 0 -50 17 -50 55 0 38 16 55
50 55 14 0 31 -5 38 -12z m99 -4 c8 -22 -9 -48 -36 -52 -13 -2 -21 -11 -21
-23 0 -10 -4 -19 -10 -19 -5 0 -10 25 -10 55 l0 55 35 0 c24 0 38 -5 42 -16z
m61 9 c-33 -5 -37 -30 -6 -42 l22 -8 -22 -5 c-35 -10 -27 -38 11 -39 l32 -1
-30 -7 c-48 -11 -55 -4 -55 55 l0 54 38 -1 c30 -2 32 -3 10 -6z m115 -37 c-2
-22 2 -45 8 -53 7 -8 8 -13 1 -13 -5 0 -17 11 -26 25 -18 28 -36 25 -36 -6 0
-10 -4 -19 -10 -19 -5 0 -10 25 -10 56 l0 55 38 -3 c36 -3 37 -4 35 -42z m95
37 c-14 -3 -18 -15 -18 -54 0 -27 -4 -49 -10 -49 -5 0 -10 22 -10 49 0 39 -4
51 -17 54 -10 3 2 5 27 5 25 0 37 -2 28 -5z m42 -48 c0 -30 -4 -55 -10 -55 -5
0 -10 25 -10 55 0 30 5 55 10 55 6 0 10 -25 10 -55z m68 48 c-33 -5 -37 -30
-6 -42 l22 -8 -22 -5 c-12 -4 -22 -13 -22 -21 0 -13 12 -16 60 -15 65 1 82 20
34 38 -36 14 -30 54 9 58 15 2 27 -1 27 -6 0 -5 -8 -8 -17 -8 -30 2 -29 -18 0
-32 20 -10 27 -20 25 -35 -2 -18 -10 -22 -43 -23 -22 -1 -51 -3 -65 -4 -48 -4
-50 -2 -50 55 l0 55 38 -1 c30 -2 32 -3 10 -6z m-14670 -430 l2 -253 -255 0
-255 0 0 255 0 255 253 -2 252 -3 3 -252z m542 2 l0 -255 -255 0 -255 0 0 255
0 255 255 0 255 0 0 -255z m538 3 l-3 -253 -252 -3 -253 -2 0 255 0 255 255 0
255 0 -2 -252z m542 179 l0 -74 -57 -13 c-123 -27 -237 -109 -278 -199 -18
-40 -20 -42 -52 -36 -22 4 -47 0 -78 -14 l-45 -20 0 208 c0 114 3 211 7 214 3
4 118 7 255 7 l248 0 0 -73z m540 -136 l0 -209 -41 14 c-30 11 -50 12 -77 4
-21 -5 -38 -6 -40 -1 -8 24 -71 110 -104 141 -44 43 -128 86 -197 101 l-51 11
0 67 c0 37 3 71 7 74 3 4 118 7 255 7 l248 0 0 -209z m540 -26 l0 -235 -252 2
-253 3 -3 220 c-1 121 0 225 2 232 4 10 62 13 256 13 l250 0 0 -235z m548 -2
l2 -233 -255 0 -255 0 0 235 0 235 253 -2 252 -3 3 -232z m537 7 l0 -225 -97
-3 c-97 -3 -98 -3 -98 -27 0 -22 -4 -25 -39 -25 -34 0 -40 4 -51 30 -16 38
-51 67 -101 82 -38 11 -39 13 -39 55 0 39 -2 43 -25 43 -24 0 -25 -3 -25 -54
0 -35 -5 -58 -15 -66 -13 -11 -15 13 -15 204 l0 216 253 -2 252 -3 0 -225z
m543 18 c1 -115 0 -208 -2 -208 -27 0 -36 16 -36 67 0 51 -2 54 -22 51 -19 -2
-24 -10 -26 -44 -3 -38 -6 -42 -52 -61 -37 -16 -53 -30 -69 -62 -19 -36 -26
-41 -56 -41 -31 0 -35 3 -35 25 l0 25 -105 0 -105 0 0 230 0 230 253 -2 252
-3 3 -207z m540 -25 l2 -233 -255 0 -255 0 0 235 0 235 253 -2 252 -3 3 -232z
m542 2 l0 -235 -255 0 -255 0 0 235 0 235 255 0 255 0 0 -235z m540 70 l0
-165 -25 0 c-25 0 -25 -1 -25 -90 l0 -90 -114 0 c-111 0 -114 1 -120 23 -9 37
-50 75 -95 87 -35 9 -48 8 -86 -9 l-45 -20 0 215 0 214 255 0 255 0 0 -165z
m540 -45 c0 -115 -2 -210 -4 -210 -2 0 -20 7 -40 15 -29 12 -45 13 -75 5 -40
-11 -101 -68 -101 -95 0 -12 -20 -15 -110 -15 l-110 0 -2 190 c-2 118 -7 190
-13 190 -6 0 -11 -72 -13 -190 -2 -182 -3 -190 -22 -190 -19 0 -20 8 -20 248
0 137 3 252 7 255 3 4 118 7 255 7 l248 0 0 -210z m540 -25 l0 -235 -252 2
-253 3 -3 220 c-1 121 0 225 2 232 4 10 62 13 256 13 l250 0 0 -235z m540 0
l0 -235 -255 0 -255 0 0 228 c0 126 3 232 7 235 3 4 118 7 255 7 l248 0 0
-235z m540 0 l0 -235 -255 0 -255 0 0 228 c0 126 3 232 7 235 3 4 118 7 255 7
l248 0 0 -235z m548 159 l3 -71 -58 -12 c-121 -24 -234 -102 -284 -195 -22
-42 -24 -44 -70 -43 -28 1 -57 -6 -73 -16 l-26 -17 0 215 0 215 253 -2 252 -3
3 -71z m540 -136 c1 -115 1 -208 -2 -208 -2 0 -21 7 -42 16 -31 13 -45 14 -77
4 -21 -6 -40 -10 -42 -8 -1 2 -12 22 -24 46 -54 107 -151 175 -293 206 -28 6
-28 8 -28 81 l0 75 253 -2 252 -3 3 -207z m540 -45 l2 -253 -249 0 -249 0 -6
23 c-3 12 -6 127 -6 255 l0 232 253 -2 252 -3 3 -252z m542 2 l0 -255 -255 0
-255 0 0 255 0 255 255 0 255 0 0 -255z m540 0 l0 -255 -255 0 -255 0 0 255 0
255 255 0 255 0 0 -255z m540 0 l0 -255 -255 0 -255 0 0 248 c0 137 3 252 7
255 3 4 118 7 255 7 l248 0 0 -255z m540 0 l0 -255 -255 0 -255 0 0 248 c0
137 3 252 7 255 3 4 118 7 255 7 l248 0 0 -255z m540 0 l0 -255 -255 0 -255 0
0 248 c0 137 3 252 7 255 3 4 118 7 255 7 l248 0 0 -255z m-12983 -132 c-1
-71 -3 -13 -3 127 0 140 2 198 3 128 2 -71 2 -185 0 -255z m2163 143 c0 -61
-3 -75 -16 -78 -11 -2 -28 -35 -49 -93 l-33 -90 -90 -3 c-89 -3 -90 -3 -96 24
-4 14 -18 37 -31 50 l-25 25 21 40 c44 86 140 159 244 185 78 19 75 22 75 -60z
m7038 -3 c2 -62 1 -71 -16 -75 -13 -4 -30 -34 -54 -94 l-36 -89 -85 -3 c-79
-3 -86 -1 -92 18 -3 11 -18 34 -32 51 -26 30 -26 30 -8 69 20 45 104 128 156
156 34 18 135 44 154 40 6 -2 11 -34 13 -73z m180 30 c60 -30 130 -101 161
-162 21 -41 22 -42 3 -69 -10 -15 -22 -35 -25 -45 -6 -16 -18 -17 -108 -15
l-100 3 -40 95 c-33 80 -39 106 -39 166 l0 71 48 -8 c26 -5 71 -21 100 -36z
m-7080 21 c72 -24 162 -100 198 -168 25 -47 27 -58 16 -73 -7 -10 -18 -30 -25
-45 -11 -28 -12 -28 -112 -28 l-100 0 -42 103 c-35 83 -43 115 -43 165 0 62 0
62 29 62 16 0 51 -7 79 -16z m6902 -264 c0 -43 -3 -50 -20 -50 -11 0 -20 1
-20 3 0 10 32 97 36 97 2 0 4 -22 4 -50z m-7040 -10 c0 -29 -4 -40 -15 -40 -8
0 -15 3 -15 7 0 9 23 73 27 73 2 0 3 -18 3 -40z m44 -25 c3 -8 1 -15 -4 -15
-6 0 -10 7 -10 15 0 8 2 15 4 15 2 0 6 -7 10 -15z m2124 -2 c3 -10 -19 -13
-87 -13 -75 0 -91 3 -91 15 0 13 14 15 87 13 58 -2 88 -7 91 -15z m212 2 c0
-12 -17 -15 -90 -15 -73 0 -90 3 -90 15 0 12 17 15 90 15 73 0 90 -3 90 -15z
m-4543 -432 c-1 -71 -3 -13 -3 127 0 140 2 198 3 128 2 -71 2 -185 0 -255z
m541 125 l-3 -253 -252 -3 -253 -2 0 255 0 255 255 0 255 0 -2 -252z m542 -3
l0 -255 -255 0 -255 0 0 255 0 255 255 0 255 0 0 -255z m538 -3 l2 -252 -252
2 -253 3 -3 253 -2 252 252 -2 253 -3 3 -253z m422 255 c0 -2 -18 -49 -40
-106 -22 -56 -38 -107 -34 -112 3 -5 16 -9 29 -9 27 0 44 26 65 98 13 41 14
42 57 42 l43 0 0 -210 0 -210 -180 0 -180 0 0 183 1 182 24 -45 c47 -92 200
-200 282 -200 51 0 47 17 -5 24 -107 14 -216 95 -268 198 l-25 49 35 40 c20
21 36 48 36 59 0 18 7 20 80 20 44 0 80 -1 80 -3z m120 -17 c0 -16 -7 -20 -30
-20 -18 0 -30 5 -30 13 0 20 10 27 37 27 16 0 23 -6 23 -20z m68 -4 c3 -13 -1
-17 -14 -14 -11 2 -20 11 -22 22 -3 13 1 17 14 14 11 -2 20 -11 22 -22z m252
7 c0 -9 12 -31 26 -50 26 -34 26 -35 10 -77 -45 -117 -191 -226 -303 -226
l-24 0 3 138 3 137 30 3 c28 3 32 -1 48 -46 10 -27 25 -58 33 -70 15 -21 58
-30 67 -14 3 4 -14 55 -38 115 l-43 107 94 0 c81 0 94 -2 94 -17z m1848 -5
c-3 -22 -8 -23 -90 -26 l-88 -3 0 26 c0 25 0 25 91 25 88 0 90 -1 87 -22z
m212 -3 c0 -25 -1 -25 -90 -25 -89 0 -90 0 -90 25 0 25 1 25 90 25 89 0 90 0
90 -25z m1900 -60 c0 -84 0 -85 25 -85 l25 0 0 -170 0 -170 -252 2 -253 3 -3
208 -2 208 31 -17 c73 -37 178 5 194 77 l7 29 114 0 114 0 0 -85z m122 -105
c2 -118 7 -190 13 -190 6 0 11 72 13 190 l2 190 110 0 c104 0 110 -1 110 -20
0 -11 15 -37 34 -58 32 -35 38 -37 93 -37 32 0 66 4 76 9 16 8 17 -5 17 -198
l0 -206 -252 2 -253 3 -3 253 c-2 246 -2 252 18 252 19 0 20 -8 22 -190z
m2508 178 c0 -7 -18 -56 -39 -108 -22 -52 -37 -98 -34 -102 2 -5 17 -8 32 -8
25 0 30 7 56 71 l27 70 42 -3 41 -3 0 -205 0 -205 -252 -3 -253 -2 0 209 0
210 28 -15 c15 -7 45 -14 67 -14 38 0 41 -2 59 -46 25 -60 117 -154 184 -188
56 -28 152 -46 152 -29 0 6 -19 13 -43 16 -65 9 -131 41 -183 89 -44 40 -104
129 -104 154 0 7 14 26 30 44 17 18 33 43 36 56 6 23 11 24 80 24 53 0 74 -4
74 -12z m128 -5 c-2 -12 -14 -19 -36 -21 -34 -3 -35 -2 -26 22 9 23 67 22 62
-1z m62 -3 c0 -11 -7 -20 -15 -20 -8 0 -15 9 -15 20 0 11 7 20 15 20 8 0 15
-9 15 -20z m265 -17 c9 -21 22 -44 30 -53 13 -14 12 -22 -11 -67 -54 -110
-166 -196 -273 -210 l-41 -6 0 142 0 142 31 -3 c27 -3 33 -10 58 -68 24 -59
29 -65 59 -68 42 -4 41 5 -8 119 -22 51 -40 96 -40 101 0 4 40 8 90 8 l90 0
15 -37z m753 -215 l-3 -253 -252 -3 -253 -2 0 224 c0 123 3 238 6 255 l7 31
248 0 249 0 -2 -252z m540 0 l-3 -253 -252 -3 -253 -2 0 255 0 255 255 0 255
0 -2 -252z m542 -3 l0 -255 -255 0 -255 0 0 255 0 255 255 0 255 0 0 -255z
m540 0 l0 -255 -252 2 -253 3 -3 253 -2 252 255 0 255 0 0 -255z m540 0 l0
-255 -252 2 -253 3 -3 253 -2 252 255 0 255 0 0 -255z m540 0 l0 -255 -252 2
-253 3 -3 253 -2 252 255 0 255 0 0 -255z m-8850 220 c0 -24 1 -24 98 -27 l97
-3 0 -220 0 -220 -252 -3 -253 -2 0 211 c0 187 2 210 15 199 10 -8 15 -30 15
-61 0 -46 2 -49 25 -49 23 0 25 4 25 45 0 42 2 45 28 45 39 0 90 35 109 75 15
31 21 35 55 35 34 0 38 -3 38 -25z m529 -11 c14 -38 61 -74 99 -74 19 0 22 -5
22 -45 0 -41 2 -45 25 -45 23 0 25 3 25 50 0 28 2 50 4 50 2 0 12 3 20 6 15 6
16 -14 14 -197 l-3 -204 -252 -3 -253 -2 0 225 0 225 105 0 105 0 0 25 c0 22
4 25 38 25 34 0 39 -3 51 -36z m-1419 -229 l0 -235 -252 2 -253 3 -3 210 c-1
116 0 220 3 233 l5 22 250 0 250 0 0 -235z m545 0 l0 -230 -252 -3 -253 -2 0
235 0 235 253 -2 252 -3 0 -230z m1623 3 l-3 -233 -252 -3 -253 -2 0 235 0
235 255 0 255 0 -2 -232z m540 0 l-3 -233 -252 -3 -253 -2 0 235 0 235 255 0
255 0 -2 -232z m1622 -3 l0 -235 -252 2 -253 3 -3 210 c-1 116 0 220 3 233 l5
22 250 0 250 0 0 -235z m540 0 l0 -235 -252 2 -253 3 -3 233 -2 232 255 0 255
0 0 -235z m540 0 l0 -235 -252 2 -253 3 -3 233 -2 232 255 0 255 0 0 -235z
m-6960 -36 c0 -186 -1 -200 -17 -197 -16 3 -18 22 -21 211 -2 206 -2 208 18
197 19 -10 20 -20 20 -211z m1010 6 l0 -205 -252 2 -253 3 -3 58 -3 57 39 0
c97 0 252 117 303 229 l22 48 48 -5 c25 -2 55 1 65 7 11 6 22 11 27 11 4 0 7
-92 7 -205z m7038 3 c-3 -184 -5 -203 -20 -206 -17 -3 -18 11 -18 196 0 199 1
208 33 211 4 1 6 -90 5 -201z m-148 -8 l0 -200 -180 0 -180 0 0 59 0 58 45 5
c107 13 239 114 285 221 14 31 26 57 28 57 1 0 2 -90 2 -200z m-9593 -607 c-1
-71 -3 -13 -3 127 0 140 2 198 3 128 2 -71 2 -185 0 -255z m543 122 l0 -255
-255 0 -255 0 0 255 0 255 255 0 255 0 0 -255z m540 0 l0 -255 -255 0 -255 0
0 255 0 255 255 0 255 0 0 -255z m540 0 l0 -255 -255 0 -255 0 0 255 0 255
255 0 255 0 0 -255z m70 0 c0 -248 -1 -255 -20 -255 -19 0 -20 7 -20 255 0
248 1 255 20 255 19 0 20 -7 20 -255z m470 0 l0 -255 -180 0 -180 0 0 255 0
255 180 0 180 0 0 -255z m540 20 l0 -235 -23 0 c-13 0 -32 -9 -42 -20 -18 -19
-29 -20 -229 -18 l-211 3 -3 253 -2 252 255 0 255 0 0 -235z m540 0 l0 -235
-255 0 -255 0 0 235 0 235 255 0 255 0 0 -235z m548 3 l-3 -233 -252 -3 -253
-2 0 235 0 235 255 0 255 0 -2 -232z m542 7 l0 -225 -99 0 -100 0 -3 -27 c-3
-24 -8 -28 -38 -31 -32 -2 -37 1 -55 40 -15 33 -31 49 -69 67 l-48 24 -49 -21
-49 -20 0 209 0 209 255 0 255 0 0 -225z m540 20 c0 -113 -2 -205 -4 -205 -2
0 -21 7 -42 16 -66 28 -137 -7 -170 -83 -12 -28 -19 -33 -49 -33 -32 0 -35 2
-35 30 l0 30 -105 0 -105 0 0 225 0 225 255 0 255 0 0 -205z m540 -30 l0 -235
-255 0 -255 0 0 235 0 235 255 0 255 0 0 -235z m540 0 l0 -235 -255 0 -255 0
0 235 0 235 255 0 255 0 0 -235z m538 74 l-3 -161 -39 -13 c-51 -18 -112 -79
-129 -129 -13 -38 -16 -41 -55 -44 -39 -3 -42 -1 -62 37 -22 43 -46 64 -98 82
-27 9 -38 8 -72 -10 -22 -12 -43 -21 -45 -21 -3 0 -5 95 -5 210 l0 210 255 0
255 0 -2 -161z m542 -48 l0 -208 -40 19 c-33 17 -45 18 -72 9 -52 -18 -76 -39
-98 -81 -18 -36 -24 -40 -59 -40 -36 0 -39 2 -50 41 -17 57 -84 122 -144 138
l-47 14 0 158 0 159 255 0 255 0 0 -209z m540 -26 l0 -235 -252 2 -253 3 -3
233 -2 232 255 0 255 0 0 -235z m540 0 l0 -235 -255 0 -255 0 0 235 0 235 255
0 255 0 0 -235z m540 0 l0 -235 -255 0 -255 0 0 235 0 235 255 0 255 0 0 -235z
m548 -17 l-3 -253 -216 -3 c-205 -2 -216 -1 -234 18 -10 11 -26 20 -37 20 -17
0 -18 13 -18 235 l0 235 255 0 255 0 -2 -252z m392 -3 l0 -255 -180 0 -180 0
0 255 0 255 180 0 180 0 0 -255z m148 3 c-3 -232 -4 -253 -20 -256 -17 -3 -18
14 -18 252 0 250 0 256 20 256 20 0 20 -5 18 -252z m542 -3 l0 -255 -255 0
-255 0 0 255 0 255 255 0 255 0 0 -255z m540 0 l0 -255 -255 0 -255 0 0 255 0
255 255 0 255 0 0 -255z m540 0 l0 -255 -255 0 -255 0 0 255 0 255 255 0 255
0 0 -255z m540 0 l0 -255 -255 0 -255 0 0 255 0 255 255 0 255 0 0 -255z m540
0 l0 -255 -252 2 -253 3 -3 253 -2 252 255 0 255 0 0 -255z m540 0 l0 -255
-252 2 -253 3 -3 253 -2 252 255 0 255 0 0 -255z m-6364 -120 c13 -8 24 -18
24 -22 0 -4 -26 -31 -57 -62 l-58 -55 -3 74 c-4 95 -1 101 39 90 17 -5 42 -16
55 -25z m-126 -52 l0 -77 -50 49 c-27 27 -50 53 -50 57 0 12 62 48 83 48 15 0
17 -10 17 -77z m-30 -75 c0 -4 -29 -8 -65 -8 -74 0 -80 10 -44 69 l20 34 45
-44 c24 -24 44 -47 44 -51z m226 46 c8 -18 14 -38 14 -44 0 -6 -29 -10 -72
-10 l-72 0 49 50 c26 27 53 47 58 43 5 -3 15 -20 23 -39z m-2358 -36 c-3 -9
-30 -13 -88 -13 -58 0 -85 4 -87 13 -4 9 18 12 87 12 69 0 91 -3 88 -12z m212
-3 c0 -12 -17 -15 -90 -15 -73 0 -90 3 -90 15 0 12 17 15 90 15 73 0 90 -3 90
-15z m-4543 -427 c-1 -73 -3 -16 -3 127 0 143 2 203 3 133 2 -70 2 -187 0
-260z m543 127 l0 -255 -255 0 -255 0 0 255 0 255 255 0 255 0 0 -255z m540 0
l0 -255 -255 0 -255 0 0 255 0 255 255 0 255 0 0 -255z m538 3 l-3 -253 -252
-3 -253 -2 0 255 0 255 255 0 255 0 -2 -252z m72 47 c0 -113 -2 -205 -4 -205
-2 0 -11 -3 -20 -6 -14 -5 -16 17 -16 205 0 204 1 211 20 211 19 0 20 -7 20
-205z m470 -20 l0 -224 -97 -3 -98 -3 -3 -27 c-3 -25 -8 -28 -37 -28 -30 0
-37 5 -55 40 -11 22 -31 47 -45 56 l-25 16 0 199 0 199 180 0 180 0 0 -225z
m407 207 c-15 -16 -17 -45 -17 -203 0 -173 -1 -185 -20 -197 -11 -6 -29 -30
-40 -53 -19 -36 -24 -40 -53 -37 -27 2 -33 8 -35 31 l-3 27 -105 0 -104 0 0
225 0 225 197 0 c189 0 196 -1 180 -18z m1761 -4 c-3 -22 -8 -23 -90 -26 l-88
-3 0 26 c0 25 0 25 91 25 88 0 90 -1 87 -22z m212 -3 c0 -25 -1 -25 -90 -25
-89 0 -90 0 -90 25 0 25 1 25 90 25 89 0 90 0 90 -25z m1770 -10 c12 -54 40
-96 88 -126 25 -16 56 -29 69 -29 l23 0 0 -160 0 -160 -255 0 -255 0 0 210 0
211 32 -17 c72 -37 177 5 193 78 6 28 9 29 53 26 42 -3 47 -5 52 -33z m128
-25 c-29 -33 -56 -60 -59 -60 -11 0 -46 61 -53 93 l-6 27 85 0 86 0 -53 -60z
m262 40 c0 -24 -37 -100 -48 -100 -4 0 -34 27 -67 60 l-59 60 87 0 c81 0 87
-1 87 -20z m119 -24 c33 -67 119 -94 194 -62 16 8 17 -5 17 -198 l0 -206 -255
0 -256 0 3 157 3 158 35 5 c19 4 45 11 56 18 38 20 84 82 96 128 12 42 14 44
49 44 34 0 39 -4 58 -44z m2381 -181 l0 -225 -99 0 -100 0 -3 -27 c-3 -24 -8
-28 -38 -31 -33 -3 -37 0 -48 32 -7 20 -26 45 -43 56 l-29 21 0 177 c0 167 -1
177 -22 199 l-21 23 201 0 202 0 0 -225z m390 24 l0 -201 -26 -21 c-15 -11
-33 -35 -40 -54 -12 -28 -19 -33 -49 -33 -32 0 -35 2 -35 30 l0 30 -105 0
-105 0 0 225 0 225 180 0 180 0 0 -201z m150 -5 c0 -190 -1 -205 -17 -202 -16
3 -18 22 -21 206 -2 197 -2 202 18 202 19 0 20 -6 20 -206z m540 -49 l0 -255
-245 0 c-231 0 -245 1 -255 19 -6 12 -10 112 -10 255 l0 236 255 0 255 0 0
-255z m540 0 l0 -255 -255 0 -255 0 0 255 0 255 255 0 255 0 0 -255z m540 0
l0 -255 -255 0 -255 0 0 255 0 255 255 0 255 0 0 -255z m540 0 l0 -255 -255 0
-255 0 0 255 0 255 255 0 255 0 0 -255z m540 0 l0 -255 -255 0 -255 0 0 255 0
255 255 0 255 0 0 -255z m540 0 l0 -255 -252 2 -253 3 -3 253 -2 252 255 0
255 0 0 -255z m-8848 218 l3 -28 98 -3 97 -3 -2 -217 -3 -217 -252 -3 -253 -2
0 210 0 211 22 -15 c57 -40 167 -6 197 62 13 28 19 32 52 32 34 0 38 -3 41
-27z m527 -9 c18 -50 63 -76 126 -71 28 2 58 7 68 11 16 8 17 -5 17 -198 l0
-206 -255 0 -255 0 0 220 0 219 103 3 102 3 3 28 c3 24 7 27 41 27 33 0 38 -3
50 -36z m1971 -90 c0 -12 -69 -44 -95 -44 -12 0 -15 16 -15 82 l0 82 55 -54
c30 -30 55 -60 55 -66z m-3930 -95 c0 -169 -2 -190 -15 -179 -12 10 -15 45
-15 191 0 152 2 179 15 179 13 0 15 -28 15 -191z m540 -44 l0 -235 -243 0
-244 0 -11 39 c-7 23 -12 115 -12 235 l0 196 255 0 255 0 0 -235z m545 0 l0
-230 -252 -3 -253 -2 0 235 0 235 253 -2 252 -3 0 -230z m1625 0 l0 -235 -255
0 -255 0 0 235 0 235 255 0 255 0 0 -235z m540 0 l0 -235 -255 0 -255 0 0 235
0 235 255 0 255 0 0 -235z m536 98 c-2 -3 -26 5 -52 16 l-48 22 50 50 49 50 3
-67 c2 -36 1 -68 -2 -71z m1084 -98 l0 -235 -255 0 -255 0 0 219 c0 121 3 226
6 235 5 14 37 16 255 16 l249 0 0 -235z m540 0 l0 -235 -252 2 -253 3 -3 233
-2 232 255 0 255 0 0 -235z m538 3 l-3 -233 -250 0 -250 0 -3 233 -2 232 255
0 255 0 -2 -232z m72 48 c0 -154 -2 -185 -15 -190 -13 -5 -15 20 -15 184 0
162 2 190 15 190 13 0 15 -27 15 -184z m-6560 -271 c0 -12 -16 -15 -85 -15
-69 0 -85 3 -85 15 0 12 16 15 85 15 69 0 85 -3 85 -15z m220 0 c0 -12 -17
-15 -95 -15 -78 0 -95 3 -95 15 0 12 17 15 95 15 78 0 95 -3 95 -15z m6818 3
c-3 -9 -33 -14 -91 -16 -73 -2 -87 0 -87 13 0 12 16 15 91 15 68 0 90 -3 87
-12z m212 -3 c0 -12 -17 -15 -90 -15 -73 0 -90 3 -90 15 0 12 17 15 90 15 73
0 90 -3 90 -15z m-8870 -300 l0 -255 -255 0 -255 0 0 255 0 255 255 0 255 0 0
-255z m540 0 l0 -255 -255 0 -255 0 0 255 0 255 255 0 255 0 0 -255z m534 239
c3 -9 6 -123 6 -255 l0 -239 -255 0 -255 0 0 255 0 255 249 0 c218 0 250 -2
255 -16z m546 -9 c0 -25 -1 -25 -85 -25 -84 0 -85 0 -85 25 0 25 1 25 85 25
84 0 85 0 85 -25z m220 0 c0 -25 0 -25 -95 -25 -95 0 -95 0 -95 25 0 25 0 25
95 25 95 0 95 0 95 -25z m864 -220 c4 -134 5 -249 1 -255 -4 -6 -98 -10 -261
-10 l-254 0 0 215 c0 144 4 229 12 255 l13 40 241 0 241 0 7 -245z m546 -10
l0 -255 -260 0 -260 0 0 239 c0 132 3 246 6 255 5 14 38 16 260 16 l254 0 0
-255z m540 0 l0 -255 -255 0 -255 0 0 255 0 255 255 0 255 0 0 -255z m540 0
l0 -255 -255 0 -255 0 0 255 0 255 255 0 255 0 0 -255z m540 0 l0 -255 -255 0
-255 0 0 255 0 255 255 0 255 0 0 -255z m540 0 l0 -255 -255 0 -255 0 0 255 0
255 255 0 255 0 0 -255z m540 0 l0 -255 -255 0 -255 0 0 255 0 255 255 0 255
0 0 -255z m540 0 l0 -255 -255 0 -255 0 0 255 0 255 255 0 255 0 0 -255z m540
0 l0 -255 -255 0 -255 0 0 255 0 255 255 0 255 0 0 -255z m540 0 l0 -255 -255
0 -255 0 0 255 0 255 255 0 255 0 0 -255z m538 -3 l2 -252 -252 2 -253 3 -3
253 -2 252 252 -2 253 -3 3 -253z m550 236 c-3 -22 -8 -23 -90 -26 l-88 -3 0
26 c0 25 0 25 91 25 88 0 90 -1 87 -22z m212 -3 c0 -25 -1 -25 -90 -25 -89 0
-90 0 -90 25 0 25 1 25 90 25 89 0 90 0 90 -25z m870 -230 l0 -255 -255 0
-255 0 0 224 c0 123 3 238 6 255 l7 31 248 0 249 0 0 -255z m540 0 l0 -255
-255 0 -255 0 0 255 0 255 255 0 255 0 0 -255z m540 0 l0 -255 -255 0 -255 0
0 255 0 255 255 0 255 0 0 -255z m540 0 l0 -255 -255 0 -255 0 0 255 0 255
255 0 255 0 0 -255z m540 0 l0 -255 -255 0 -255 0 0 255 0 255 255 0 255 0 0
-255z m540 0 l0 -255 -255 0 -255 0 0 255 0 255 255 0 255 0 0 -255z m-11018
218 l3 -28 98 -3 97 -3 0 -219 0 -220 -180 0 -180 0 0 198 0 198 29 17 c17 10
35 33 42 52 12 31 17 35 50 35 34 0 38 -3 41 -27z m526 -7 c7 -19 24 -41 37
-50 l25 -16 0 -200 0 -200 -180 0 -180 0 0 220 0 220 105 0 105 0 0 30 c0 28
2 30 38 30 34 0 39 -3 50 -34z m6512 4 l0 -30 100 0 100 0 -2 -217 -3 -218
-177 -3 -178 -2 0 195 0 196 40 38 c22 21 40 45 40 54 0 13 9 17 40 17 38 0
40 -2 40 -30z m526 -6 c25 -52 67 -76 129 -71 28 2 58 7 68 11 16 8 17 -5 17
-198 l0 -206 -255 0 -255 0 0 220 0 219 103 3 102 3 3 28 c3 23 8 27 37 27 29
0 36 -5 51 -36z m-7836 -264 c0 -193 -1 -200 -20 -200 -19 0 -20 7 -20 210 0
208 0 211 20 200 19 -10 20 -21 20 -210z m1010 5 c0 -176 -2 -205 -15 -205
-13 0 -15 29 -15 199 0 192 1 202 28 210 1 1 2 -91 2 -204z m6018 -3 c2 -175
0 -202 -13 -202 -13 0 -15 28 -15 206 0 160 3 205 13 202 9 -4 13 -56 15 -206z
m-8178 -487 l0 -255 -255 0 -255 0 0 255 0 255 255 0 255 0 0 -255z m540 0 l0
-255 -255 0 -255 0 0 255 0 255 255 0 255 0 0 -255z m540 0 l0 -255 -255 0
-255 0 0 255 0 255 255 0 255 0 0 -255z m70 0 c0 -248 -1 -255 -20 -255 -19 0
-20 7 -20 255 0 248 1 255 20 255 19 0 20 -7 20 -255z m470 0 l0 -255 -180 0
-180 0 0 255 0 255 180 0 180 0 0 -255z m390 23 c0 -224 1 -232 22 -255 l21
-23 -201 0 -202 0 0 255 0 255 180 0 180 0 0 -232z m150 -3 c0 -202 -2 -235
-15 -235 -13 0 -15 33 -15 235 0 202 2 235 15 235 13 0 15 -33 15 -235z m548
20 c1 -115 0 -220 -3 -232 l-5 -23 -255 0 -255 0 0 235 0 235 258 -2 257 -3 3
-210z m540 53 l-3 -162 -33 -10 c-49 -14 -118 -79 -138 -131 -16 -44 -18 -45
-60 -45 -32 0 -44 4 -44 15 0 8 -17 32 -39 54 -50 50 -95 59 -156 32 l-45 -20
0 215 0 214 260 0 260 0 -2 -162z m542 -48 c0 -115 -2 -210 -4 -210 -2 0 -20
7 -40 15 -68 29 -144 -4 -173 -72 -13 -32 -17 -34 -54 -31 -38 3 -42 6 -54 42
-19 53 -69 103 -130 125 l-50 19 -3 161 -2 161 255 0 255 0 0 -210z m540 -25
l0 -235 -255 0 -255 0 0 235 0 235 255 0 255 0 0 -235z m540 0 l0 -235 -255 0
-255 0 0 235 0 235 255 0 255 0 0 -235z m540 10 l0 -224 -97 -3 -98 -3 -3 -27
c-3 -25 -7 -28 -40 -28 -34 0 -39 4 -54 40 -13 31 -27 45 -60 60 -54 25 -74
25 -121 1 l-37 -19 0 214 0 214 255 0 255 0 0 -225z m540 16 l0 -209 -40 15
c-34 14 -47 14 -82 4 -46 -14 -98 -63 -98 -92 0 -15 -7 -19 -40 -19 -38 0 -40
2 -40 30 l0 30 -105 0 -105 0 0 225 0 225 255 0 255 0 0 -209z m540 -26 l0
-235 -252 2 -253 3 -3 233 -2 232 255 0 255 0 0 -235z m540 162 l0 -72 -60
-12 c-115 -22 -217 -93 -272 -189 -29 -53 -31 -54 -66 -48 -26 3 -48 -1 -74
-14 l-38 -20 0 214 0 214 255 0 255 0 0 -73z m540 -136 l0 -210 -37 15 c-34
15 -65 14 -103 0 -11 -4 -23 10 -44 49 -51 99 -174 187 -278 201 l-48 7 0 73
0 74 255 0 255 0 0 -209z m540 -26 l0 -235 -249 0 c-218 0 -250 2 -255 16 -3
9 -6 114 -6 235 l0 219 255 0 255 0 0 -235z m70 0 c0 -202 -2 -235 -15 -235
-13 0 -15 33 -15 235 0 202 2 235 15 235 13 0 15 -33 15 -235z m480 -20 l0
-255 -202 0 -201 0 21 23 c21 23 22 31 22 255 l0 232 180 0 180 0 0 -255z
m540 0 l0 -255 -255 0 -255 0 0 255 0 255 255 0 255 0 0 -255z m540 0 l0 -255
-255 0 -255 0 0 255 0 255 255 0 255 0 0 -255z m540 0 l0 -255 -255 0 -255 0
0 255 0 255 255 0 255 0 0 -255z m540 0 l0 -255 -255 0 -255 0 0 255 0 255
255 0 255 0 0 -255z m540 0 l0 -255 -255 0 -255 0 0 255 0 255 255 0 255 0 0
-255z m540 0 l0 -255 -255 0 -255 0 0 255 0 255 255 0 255 0 0 -255z m540 0
l0 -255 -255 0 -255 0 0 255 0 255 255 0 255 0 0 -255z m-5410 11 c0 -62 -3
-74 -17 -78 -12 -3 -30 -37 -52 -97 l-33 -91 -89 0 c-79 0 -89 2 -89 18 0 9
-14 34 -31 55 l-31 37 32 50 c55 86 127 140 220 166 89 24 90 24 90 -60z m167
39 c66 -30 146 -104 173 -161 l22 -44 -24 -50 -23 -50 -99 3 -98 2 -44 103
c-35 82 -44 115 -44 161 0 32 3 61 7 65 11 11 71 -2 130 -29z m-3947 -220 c0
-41 -3 -75 -7 -75 -10 0 -103 92 -103 102 0 10 71 47 93 48 15 0 17 -10 17
-75z m122 47 l28 -18 -60 -59 -60 -59 0 83 0 84 32 -7 c17 -3 44 -14 60 -24z
m-218 -130 c-36 -2 -68 -1 -71 2 -3 2 5 26 16 52 l22 48 50 -50 50 -49 -67 -3z
m276 66 c35 -59 29 -68 -46 -68 l-66 0 42 50 c23 28 44 50 46 50 2 0 13 -15
24 -32z m3600 -23 c0 -33 -4 -45 -15 -45 -8 0 -15 3 -15 6 0 12 23 84 27 84 1
0 3 -20 3 -45z m-1620 -30 c0 -12 -17 -15 -90 -15 -73 0 -90 3 -90 15 0 12 17
15 90 15 73 0 90 -3 90 -15z m220 0 c0 -12 -17 -15 -95 -15 -78 0 -95 3 -95
15 0 12 17 15 95 15 78 0 95 -3 95 -15z m1450 -6 c0 -5 -4 -9 -10 -9 -5 0 -10
7 -10 16 0 8 5 12 10 9 6 -3 10 -10 10 -16z m-7080 -294 l0 -255 -255 0 -255
0 0 255 0 255 255 0 255 0 0 -255z m540 0 l0 -255 -255 0 -255 0 0 255 0 255
255 0 255 0 0 -255z m540 0 l0 -255 -255 0 -255 0 0 255 0 255 255 0 255 0 0
-255z m70 0 c0 -248 -1 -255 -20 -255 -19 0 -20 7 -20 255 0 248 1 255 20 255
19 0 20 -7 20 -255z m470 0 l0 -255 -180 0 -180 0 0 255 0 255 180 0 180 0 0
-255z m485 235 c10 -11 26 -20 37 -20 17 0 18 -13 18 -235 l0 -235 -255 0
-255 0 0 255 0 255 218 0 c206 0 220 -1 237 -20z m951 3 c30 -94 85 -158 151
-176 l43 -11 0 -153 0 -153 -260 0 -260 0 0 206 0 206 23 -7 c38 -12 96 -17
123 -11 34 9 94 70 94 96 0 17 7 20 40 20 30 0 42 -5 46 -17z m139 -43 c-33
-33 -63 -60 -68 -60 -10 0 -46 79 -47 103 0 15 11 17 87 17 l87 0 -59 -60z
m259 33 c-9 -36 -31 -80 -45 -89 -6 -4 -38 20 -73 55 l-61 61 93 0 92 0 -6
-27z m122 -18 c31 -56 67 -77 129 -72 28 2 58 7 68 11 16 8 17 -5 17 -198 l0
-206 -255 0 -255 0 0 155 c0 149 1 155 20 155 63 0 153 82 171 156 11 44 13
45 47 42 30 -3 39 -10 58 -43z m1834 20 c0 -25 -1 -25 -90 -25 -89 0 -90 0
-90 25 0 25 1 25 90 25 89 0 90 0 90 -25z m220 0 c0 -25 0 -25 -95 -25 -95 0
-95 0 -95 25 0 25 0 25 95 25 95 0 95 0 95 -25z m1280 17 c0 -4 -15 -46 -34
-93 -54 -134 -53 -129 -13 -129 34 0 35 2 58 65 l23 65 43 0 43 0 0 -141 0
-142 -47 7 c-112 15 -232 105 -282 211 l-22 46 31 29 c16 15 33 42 36 59 l7
31 78 0 c44 0 79 -4 79 -8z m120 -12 c0 -16 -7 -20 -30 -20 -32 0 -33 1 -24
24 9 24 54 21 54 -4z m68 -3 c2 -12 -3 -17 -17 -17 -15 0 -21 6 -21 21 0 25
33 22 38 -4z m261 -22 c11 -25 25 -45 30 -45 36 0 -25 -124 -89 -184 -56 -52
-132 -91 -197 -102 l-43 -7 0 142 0 141 33 0 c32 0 35 -4 59 -62 24 -60 28
-63 62 -66 20 -2 36 -1 36 3 0 3 -11 32 -24 63 -14 32 -33 81 -44 110 l-20 52
88 0 89 0 20 -45z m1301 -210 l0 -255 -255 0 -255 0 0 235 c0 222 1 235 18
235 11 0 27 9 37 20 17 19 31 20 237 20 l218 0 0 -255z m540 0 l0 -255 -255 0
-255 0 0 255 0 255 255 0 255 0 0 -255z m540 0 l0 -255 -255 0 -255 0 0 255 0
255 255 0 255 0 0 -255z m540 0 l0 -255 -255 0 -255 0 0 255 0 255 255 0 255
0 0 -255z m540 0 l0 -255 -255 0 -255 0 0 255 0 255 255 0 255 0 0 -255z m540
0 l0 -255 -255 0 -255 0 0 255 0 255 255 0 255 0 0 -255z m540 0 l0 -255 -255
0 -255 0 0 255 0 255 255 0 255 0 0 -255z m540 0 l0 -255 -255 0 -255 0 0 255
0 255 255 0 255 0 0 -255z m-7230 215 l0 -30 100 0 100 0 0 -220 0 -220 -180
0 -180 0 0 199 c0 191 1 200 20 206 11 3 32 26 46 51 23 38 30 44 60 44 31 0
34 -3 34 -30z m529 -5 c7 -20 23 -43 37 -51 l24 -16 0 -199 0 -199 -180 0
-180 0 0 220 0 220 105 0 105 0 0 30 c0 28 2 30 38 30 34 0 39 -3 51 -35z
m-2356 -98 c-7 -11 -67 -37 -88 -37 -12 0 -15 15 -15 77 l0 77 55 -54 c30 -29
51 -58 48 -63z m-679 87 c3 -9 6 -114 6 -235 l0 -219 -260 0 -260 0 0 235 0
235 254 0 c222 0 255 -2 260 -16z m546 -54 c0 -80 -5 -83 -72 -49 l-41 21 49
49 c27 26 52 49 57 49 4 0 7 -31 7 -70z m1080 -165 l0 -235 -255 0 -255 0 0
235 0 235 255 0 255 0 0 -235z m540 0 l0 -235 -255 0 -255 0 0 235 0 235 255
0 255 0 0 -235z m1620 0 l0 -235 -255 0 -255 0 0 219 c0 121 3 226 6 235 5 14
37 16 255 16 l249 0 0 -235z m1620 0 l0 -235 -255 0 -255 0 0 213 c0 116 3
222 6 235 l6 22 249 0 249 0 0 -235z m-3170 -37 c0 -191 -1 -198 -20 -198 -19
0 -20 7 -20 210 0 208 0 210 20 198 19 -12 20 -24 20 -210z m1010 7 c0 -198
-1 -205 -20 -205 -19 0 -20 7 -20 195 0 174 2 195 18 204 9 6 18 11 20 11 1 0
2 -92 2 -205z m663 188 c47 -5 49 -6 71 -57 52 -115 190 -216 297 -216 l49 0
0 -60 0 -60 -255 0 -255 0 0 206 0 206 23 -7 c12 -4 44 -10 70 -12z m957 -188
l0 -205 -255 0 -255 0 0 59 0 59 53 4 c28 3 75 15 102 28 64 31 153 121 184
188 l24 52 56 0 c31 0 63 5 71 10 8 5 16 10 18 10 1 0 2 -92 2 -205z m-7570
-490 l0 -255 -255 0 -255 0 0 255 0 255 255 0 255 0 0 -255z m540 0 l0 -255
-255 0 -255 0 0 255 0 255 255 0 255 0 0 -255z m540 0 l0 -255 -255 0 -255 0
0 255 0 255 255 0 255 0 0 -255z m70 0 c0 -248 -1 -255 -20 -255 -19 0 -20 7
-20 255 0 248 1 255 20 255 19 0 20 -7 20 -255z m470 20 l0 -235 -180 0 -180
0 0 235 0 235 180 0 180 0 0 -235z m540 0 l0 -235 -255 0 -255 0 0 235 0 235
255 0 255 0 0 -235z m545 224 c4 -5 4 -111 0 -235 l-8 -224 -253 0 -254 0 0
228 c0 126 3 232 7 235 11 12 501 8 508 -4z m545 -48 l0 -58 -47 -7 c-116 -15
-253 -117 -302 -224 -23 -49 -27 -52 -52 -47 -18 4 -45 -1 -74 -14 l-45 -20 0
208 c0 114 3 211 7 214 3 4 120 7 260 7 l253 0 0 -59z m540 -151 c0 -115 -2
-210 -4 -210 -2 0 -20 7 -41 16 -21 8 -49 13 -65 9 -25 -5 -28 -2 -45 41 -38
101 -190 215 -307 230 l-48 7 0 58 0 59 255 0 255 0 0 -210z m540 -25 l0 -235
-255 0 -255 0 0 235 0 235 255 0 255 0 0 -235z m540 0 l0 -235 -255 0 -255 0
0 235 0 235 255 0 255 0 0 -235z m70 0 c0 -228 -1 -235 -20 -235 -19 0 -20 7
-20 235 0 228 1 235 20 235 19 0 20 -7 20 -235z m470 -20 l0 -255 -197 0
c-189 0 -196 1 -180 18 15 16 17 49 17 255 l0 237 180 0 180 0 0 -255z m390 0
l0 -255 -180 0 -180 0 0 255 0 255 180 0 180 0 0 -255z m150 0 c0 -248 -1
-255 -20 -255 -19 0 -20 7 -20 255 0 248 1 255 20 255 19 0 20 -7 20 -255z
m540 0 l0 -255 -255 0 -255 0 0 255 0 255 255 0 255 0 0 -255z m540 0 l0 -255
-255 0 -255 0 0 255 0 255 255 0 255 0 0 -255z m540 0 l0 -255 -255 0 -255 0
0 255 0 255 255 0 255 0 0 -255z m540 0 l0 -255 -255 0 -255 0 0 248 c0 137 3
252 7 255 3 4 118 7 255 7 l248 0 0 -255z m548 -2 l2 -253 -255 0 -255 0 0
255 0 255 253 -2 252 -3 3 -252z m542 2 l0 -255 -255 0 -255 0 0 255 0 255
255 0 255 0 0 -255z m540 0 l0 -255 -255 0 -255 0 0 255 0 255 255 0 255 0 0
-255z m540 0 l0 -255 -255 0 -255 0 0 255 0 255 255 0 255 0 0 -255z m540 0
l0 -255 -255 0 -255 0 0 255 0 255 255 0 255 0 0 -255z m540 0 l0 -255 -255 0
-255 0 0 255 0 255 255 0 255 0 0 -255z m540 0 l0 -255 -255 0 -255 0 0 255 0
255 255 0 255 0 0 -255z m540 0 l0 -255 -255 0 -255 0 0 255 0 255 255 0 255
0 0 -255z m-9190 -70 l0 -185 -24 0 c-25 0 -39 29 -89 175 -12 34 -19 40 -45
43 -41 4 -40 -2 3 -112 19 -49 35 -93 35 -98 0 -4 -35 -8 -79 -8 -78 0 -79 0
-91 30 -7 17 -24 39 -37 50 -32 25 -27 47 26 126 58 86 183 162 269 164 l32 0
0 -185z m190 145 c74 -38 139 -101 174 -172 l26 -52 -29 -23 c-15 -12 -34 -36
-41 -53 -12 -30 -13 -30 -92 -30 -92 0 -89 -13 -35 122 19 48 33 89 29 92 -3
3 -16 6 -29 6 -26 0 -34 -14 -81 -140 -24 -66 -31 -75 -55 -78 l-27 -3 0 187
0 187 49 -6 c27 -3 77 -20 111 -37z m-3440 -615 l0 -255 -255 0 -255 0 0 255
0 255 255 0 255 0 0 -255z m540 0 l0 -255 -255 0 -255 0 0 255 0 255 255 0
255 0 0 -255z m540 0 l0 -255 -255 0 -255 0 0 255 0 255 255 0 255 0 0 -255z
m70 0 c0 -248 -1 -255 -20 -255 -19 0 -20 7 -20 255 0 248 1 255 20 255 19 0
20 -7 20 -255z m2029 168 c18 -49 42 -103 52 -121 18 -31 28 -150 14 -164 -3
-3 -29 -1 -58 4 -105 19 -213 101 -262 198 l-26 51 35 40 c20 21 36 48 36 59
0 18 7 20 88 20 l89 0 32 -87z m69 41 c4 -47 -14 -36 -24 15 -6 26 -4 33 7 29
8 -3 15 -21 17 -44z m62 29 c-1 -10 -7 -31 -15 -48 l-13 -30 -1 48 c-1 35 3
47 14 47 8 0 15 -8 15 -17z m267 -32 c12 -24 31 -49 40 -57 17 -12 17 -15 -7
-61 -50 -96 -161 -182 -256 -198 -21 -4 -47 -9 -56 -12 -16 -4 -18 4 -18 73 0
54 4 80 14 88 8 6 31 57 52 114 l37 103 85 -3 85 -3 24 -44z m1833 -206 l0
-255 -255 0 -255 0 0 235 0 235 23 0 c13 0 32 9 42 20 17 19 31 20 232 20
l213 0 0 -255z m390 0 l0 -255 -180 0 -180 0 0 255 0 255 180 0 180 0 0 -255z
m150 0 c0 -248 -1 -255 -20 -255 -19 0 -20 7 -20 255 0 248 1 255 20 255 19 0
20 -7 20 -255z m540 0 l0 -255 -255 0 -255 0 0 255 0 255 255 0 255 0 0 -255z
m540 0 l0 -255 -255 0 -255 0 0 255 0 255 255 0 255 0 0 -255z m540 0 l0 -255
-255 0 -255 0 0 248 c0 137 3 252 7 255 3 4 118 7 255 7 l248 0 0 -255z m540
0 l0 -255 -255 0 -255 0 0 248 c0 137 3 252 7 255 3 4 118 7 255 7 l248 0 0
-255z m548 -2 l2 -253 -255 0 -255 0 0 255 0 255 253 -2 252 -3 3 -252z m540
0 l2 -253 -255 0 -255 0 0 255 0 255 253 -2 252 -3 3 -252z m542 2 l0 -255
-255 0 -255 0 0 255 0 255 255 0 255 0 0 -255z m540 0 l0 -255 -255 0 -255 0
0 255 0 255 255 0 255 0 0 -255z m540 0 l0 -255 -255 0 -255 0 0 255 0 255
255 0 255 0 0 -255z m540 0 l0 -255 -255 0 -255 0 0 255 0 255 255 0 255 0 0
-255z m540 0 l0 -255 -255 0 -255 0 0 255 0 255 255 0 255 0 0 -255z m540 0
l0 -255 -255 0 -255 0 0 248 c0 137 3 252 7 255 3 4 118 7 255 7 l248 0 0
-255z m-10820 -20 l0 -235 -180 0 -180 0 0 235 0 235 180 0 180 0 0 -235z
m540 0 l0 -235 -255 0 -255 0 0 235 0 235 255 0 255 0 0 -235z m540 0 l0 -235
-255 0 -255 0 0 235 0 235 255 0 255 0 0 -235z m1630 0 l0 -235 -255 0 -255 0
0 235 0 235 255 0 255 0 0 -235z m540 0 l0 -235 -255 0 -255 0 0 235 0 235
255 0 255 0 0 -235z m-2031 145 c38 0 42 -3 65 -47 51 -101 168 -185 295 -216
l51 -12 0 -52 0 -53 -255 0 -255 0 0 205 0 206 30 -16 c16 -8 47 -15 69 -15z
m951 -180 l0 -200 -255 0 -255 0 0 53 0 52 57 14 c127 29 236 109 288 210 25
50 26 51 73 51 26 0 54 5 62 10 8 5 18 10 23 10 4 0 7 -90 7 -200z m-3790
-485 l0 -255 -255 0 -255 0 0 255 0 255 255 0 255 0 0 -255z m540 0 l0 -255
-255 0 -255 0 0 255 0 255 255 0 255 0 0 -255z m540 0 l0 -255 -255 0 -255 0
0 255 0 255 255 0 255 0 0 -255z m70 18 c0 -206 2 -239 17 -255 15 -17 14 -18
-20 -18 l-37 0 0 248 c0 137 3 252 7 255 3 4 12 7 20 7 10 0 13 -46 13 -237z
m470 2 l0 -235 -180 0 -180 0 0 235 0 235 180 0 180 0 0 -235z m540 0 l0 -235
-255 0 -255 0 0 228 c0 126 3 232 7 235 3 4 118 7 255 7 l248 0 0 -235z m540
0 l0 -235 -255 0 -255 0 0 228 c0 126 3 232 7 235 3 4 118 7 255 7 l248 0 0
-235z m548 -2 l2 -233 -255 0 -255 0 0 235 0 235 253 -2 252 -3 3 -232z m540
0 l2 -233 -255 0 -255 0 0 235 0 235 253 -2 252 -3 3 -232z m540 0 l2 -233
-255 0 -255 0 0 235 0 235 253 -2 252 -3 3 -232z m540 0 l2 -233 -255 0 -255
0 0 235 0 235 253 -2 252 -3 3 -232z m542 179 l0 -58 -57 -12 c-32 -7 -77 -22
-101 -33 -65 -33 -145 -111 -180 -177 -31 -58 -32 -59 -75 -59 -24 0 -54 -7
-70 -17 l-27 -18 0 216 0 216 255 0 255 0 0 -58z m390 -112 c0 -93 -2 -170 -3
-170 -2 0 -19 23 -38 50 -56 83 -170 153 -270 166 l-49 7 0 58 0 59 180 0 180
0 0 -170z m150 -40 c0 -115 -2 -210 -4 -210 -2 0 -11 3 -20 6 -14 5 -16 33
-16 210 0 197 1 204 20 204 19 0 20 -7 20 -210z m540 -45 l0 -255 -243 0 -244
0 -11 25 c-13 28 -17 466 -5 478 3 4 118 7 255 7 l248 0 0 -255z m540 0 l0
-255 -255 0 -255 0 0 248 c0 137 3 252 7 255 3 4 118 7 255 7 l248 0 0 -255z
m540 0 l0 -255 -255 0 -255 0 0 248 c0 137 3 252 7 255 3 4 118 7 255 7 l248
0 0 -255z m540 0 l0 -255 -255 0 -255 0 0 248 c0 137 3 252 7 255 3 4 118 7
255 7 l248 0 0 -255z m548 -2 l2 -253 -255 0 -255 0 0 255 0 255 253 -2 252
-3 3 -252z m540 0 l2 -253 -255 0 -255 0 0 255 0 255 253 -2 252 -3 3 -252z
m540 0 l2 -253 -255 0 -255 0 0 255 0 255 253 -2 252 -3 3 -252z m542 2 l0
-255 -255 0 -255 0 0 255 0 255 255 0 255 0 0 -255z m540 0 l0 -255 -255 0
-255 0 0 255 0 255 255 0 255 0 0 -255z m540 0 l0 -255 -255 0 -255 0 0 255 0
255 255 0 255 0 0 -255z m540 0 l0 -255 -255 0 -255 0 0 248 c0 137 3 252 7
255 3 4 118 7 255 7 l248 0 0 -255z m540 0 l0 -255 -255 0 -255 0 0 248 c0
137 3 252 7 255 3 4 118 7 255 7 l248 0 0 -255z m-7030 -70 l0 -185 -24 0
c-22 0 -28 10 -57 98 -35 106 -44 122 -68 122 -42 -1 -42 -14 -6 -111 19 -52
35 -97 35 -101 0 -5 -36 -8 -79 -8 -75 0 -79 1 -85 24 -3 13 -19 36 -35 52
l-30 29 20 45 c24 54 109 144 162 171 35 18 127 47 155 48 9 1 12 -42 12 -184z
m102 174 c114 -24 218 -104 264 -203 l23 -49 -29 -27 c-16 -15 -32 -39 -36
-53 -6 -26 -8 -27 -85 -27 -43 0 -79 4 -79 9 0 5 16 51 35 101 19 50 35 94 35
96 0 2 -15 4 -34 4 l-34 0 -37 -105 c-36 -100 -39 -105 -66 -105 l-29 0 0 185
c0 110 4 185 10 185 5 0 33 -5 62 -11z m-5517 -649 l0 -255 -252 -3 -253 -2 0
260 0 260 253 -2 252 -3 0 -255z m540 0 l0 -255 -250 0 -250 0 -3 245 c-1 134
0 250 3 257 3 11 58 13 252 11 l248 -3 0 -255z m545 0 l0 -260 -252 2 -253 3
-3 245 c-1 134 0 250 3 257 3 10 62 13 255 13 l250 0 0 -260z m160 235 c23
-25 25 -25 202 -25 l178 0 0 -235 0 -235 -252 2 -253 3 -3 245 c-1 134 0 250
3 257 3 8 23 13 53 13 39 0 53 -5 72 -25z m4074 3 c9 -12 30 -62 47 -110 18
-48 36 -88 40 -88 5 0 9 -36 9 -80 l0 -81 -37 7 c-116 21 -237 105 -284 196
-23 46 -24 62 -2 79 9 8 25 33 35 57 l19 42 79 0 c70 0 81 -2 94 -22z m95 -26
l-1 -37 -14 33 c-14 33 -11 57 7 47 5 -4 9 -23 8 -43z m66 38 c3 -5 -3 -29
-14 -52 l-19 -43 -1 46 c-1 25 2 49 6 52 9 10 21 9 28 -3z m241 2 c6 -4 14
-19 17 -33 4 -15 18 -37 32 -50 30 -29 31 -39 6 -87 -48 -93 -171 -177 -288
-197 l-43 -7 0 81 c0 58 4 81 13 81 6 0 26 37 42 81 17 45 38 95 47 110 17 28
21 29 90 29 40 0 78 -4 84 -8z m774 -252 l0 -260 -252 2 -253 3 -3 215 c-2
150 1 228 10 258 l12 42 243 0 243 0 0 -260z m540 0 l0 -260 -252 2 -253 3 -3
245 c-1 134 0 250 3 257 3 10 62 13 255 13 l250 0 0 -260z m540 0 l0 -260
-252 2 -253 3 -3 245 c-1 134 0 250 3 257 3 10 62 13 255 13 l250 0 0 -260z
m540 0 l0 -260 -252 2 -253 3 -3 245 c-1 134 0 250 3 257 3 10 62 13 255 13
l250 0 0 -260z m545 0 l0 -255 -252 -3 -253 -2 0 260 0 260 253 -2 252 -3 0
-255z m540 0 l0 -255 -252 -3 -253 -2 0 260 0 260 253 -2 252 -3 0 -255z m540
0 l0 -255 -252 -3 -253 -2 0 260 0 260 253 -2 252 -3 0 -255z m540 0 l0 -255
-252 -3 -253 -2 0 260 0 260 253 -2 252 -3 0 -255z m540 0 l0 -255 -250 0
-250 0 -3 245 c-1 134 0 250 3 257 3 11 58 13 252 11 l248 -3 0 -255z m545 0
l0 -260 -252 2 -253 3 -3 245 c-1 134 0 250 3 257 3 10 62 13 255 13 l250 0 0
-260z m540 0 l0 -260 -252 2 -253 3 -3 245 c-1 134 0 250 3 257 3 10 62 13
255 13 l250 0 0 -260z m540 0 l0 -260 -252 2 -253 3 -3 245 c-1 134 0 250 3
257 3 10 62 13 255 13 l250 0 0 -260z m-10280 -25 l0 -235 -252 2 -253 3 -3
233 -2 232 255 0 255 0 0 -235z m540 0 l0 -235 -252 2 -253 3 -3 233 -2 232
255 0 255 0 0 -235z m548 3 l-3 -233 -252 -3 -253 -2 0 235 0 235 255 0 255 0
-2 -232z m540 0 l-3 -233 -252 -3 -253 -2 0 235 0 235 255 0 255 0 -2 -232z
m540 0 l-3 -233 -252 -3 -253 -2 0 235 0 235 255 0 255 0 -2 -232z m540 0 l-3
-233 -252 -3 -253 -2 0 235 0 235 255 0 255 0 -2 -232z m135 152 c41 0 44 -2
65 -46 50 -103 186 -203 298 -220 l45 -6 -3 -57 -3 -56 -252 -3 -253 -2 0 210
0 211 30 -16 c16 -8 49 -15 73 -15z m947 -185 l0 -205 -252 2 -253 3 -3 56 -3
56 50 7 c114 15 260 122 308 226 17 37 20 40 63 40 25 0 52 5 60 10 8 5 18 10
23 10 4 0 7 -92 7 -205z"/>
<path d="M947 7984 c-13 -13 -7 -61 9 -75 24 -20 49 1 49 42 0 29 -4 34 -25
37 -14 2 -29 0 -33 -4z"/>
<path d="M1057 7984 c-13 -13 -7 -61 9 -75 24 -20 49 1 49 42 0 29 -4 34 -25
37 -14 2 -29 0 -33 -4z"/>
<path d="M1260 7974 c0 -9 7 -14 17 -12 25 5 28 28 4 28 -12 0 -21 -6 -21 -16z"/>
<path d="M1347 7984 c-13 -13 -7 -61 9 -75 24 -20 49 1 49 42 0 29 -4 34 -25
37 -14 2 -29 0 -33 -4z"/>
<path d="M1260 7919 c0 -25 33 -22 38 4 2 12 -3 17 -17 17 -15 0 -21 -6 -21
-21z"/>
<path d="M16651 7968 c-11 -31 2 -62 27 -66 28 -4 45 28 32 62 -12 33 -47 35
-59 4z"/>
<path d="M16760 7976 c0 -10 9 -16 21 -16 24 0 21 23 -4 28 -10 2 -17 -3 -17
-12z"/>
<path d="M16760 7920 c0 -13 7 -20 20 -20 13 0 20 7 20 20 0 13 -7 20 -20 20
-13 0 -20 -7 -20 -20z"/>
<path d="M17240 7971 c0 -15 6 -21 21 -21 25 0 22 33 -4 38 -12 2 -17 -3 -17
-17z"/>
<path d="M17330 7971 c0 -15 6 -21 21 -21 25 0 22 33 -4 38 -12 2 -17 -3 -17
-17z"/>
<path d="M17431 7968 c-11 -31 2 -62 27 -66 28 -4 45 28 32 62 -12 33 -47 35
-59 4z"/>
<path d="M17540 7971 c0 -15 6 -21 21 -21 25 0 22 33 -4 38 -12 2 -17 -3 -17
-17z"/>
<path d="M17720 7971 c0 -15 6 -21 21 -21 25 0 22 33 -4 38 -12 2 -17 -3 -17
-17z"/>
<path d="M6620 7725 c0 -52 1 -55 25 -55 21 0 25 5 25 29 0 26 4 30 33 33 24
2 32 8 32 23 0 17 -8 20 -57 23 l-58 3 0 -56z"/>
<path d="M6880 7755 c0 -25 1 -25 80 -25 79 0 80 0 80 25 0 25 -1 25 -80 25
-79 0 -80 0 -80 -25z"/>
<path d="M7190 7755 c0 -24 2 -25 75 -25 73 0 75 1 75 25 0 24 -2 25 -75 25
-73 0 -75 -1 -75 -25z"/>
<path d="M7490 7755 c0 -21 5 -25 30 -25 27 0 30 -3 30 -30 0 -25 4 -30 25
-30 24 0 25 3 25 55 l0 55 -55 0 c-52 0 -55 -1 -55 -25z"/>
<path d="M9015 7611 c-7 -12 31 -25 45 -16 5 3 10 10 10 16 0 12 -47 12 -55 0z"/>
<path d="M9510 7661 c0 -10 -9 -21 -20 -24 -11 -3 -20 -10 -20 -16 0 -6 9 -11
20 -11 13 0 20 -7 20 -20 0 -11 7 -20 15 -20 8 0 15 9 15 20 0 13 7 20 20 20
11 0 20 5 20 11 0 6 -9 13 -20 16 -11 3 -20 14 -20 24 0 11 -7 19 -15 19 -8 0
-15 -8 -15 -19z"/>
<path d="M6622 6858 l3 -53 55 0 c48 0 55 2 55 20 0 15 -8 21 -32 23 -29 3
-33 7 -33 33 0 24 -4 29 -26 29 -24 0 -25 -2 -22 -52z"/>
<path d="M6887 6843 c-4 -3 -7 -15 -7 -25 0 -16 9 -18 80 -18 79 0 80 0 80 25
0 24 -2 25 -73 25 -41 0 -77 -3 -80 -7z"/>
<path d="M7550 6880 c0 -27 -3 -30 -30 -30 -25 0 -30 -4 -30 -25 0 -24 3 -25
55 -25 l55 0 0 55 c0 52 -1 55 -25 55 -21 0 -25 -5 -25 -30z"/>
<path d="M7190 6825 c0 -24 2 -25 75 -25 73 0 75 1 75 25 0 24 -2 25 -75 25
-73 0 -75 -1 -75 -25z"/>
<path d="M16060 7415 c0 -62 17 -75 22 -17 l3 37 23 -37 c13 -21 28 -38 33
-38 5 0 8 26 7 58 l-1 57 -6 -44 -6 -45 -28 42 c-15 23 -32 42 -37 42 -6 0
-10 -25 -10 -55z"/>
<path d="M17861 7413 c1 -32 4 -46 6 -30 5 34 25 35 51 2 25 -31 40 -33 20 -2
-11 16 -12 27 -5 38 17 28 1 49 -38 49 l-35 0 1 -57z m67 25 c3 -14 -3 -18
-27 -18 -25 0 -31 4 -31 21 0 16 5 20 27 17 17 -2 29 -10 31 -20z"/>
<path d="M18268 7450 c-5 -17 3 -90 11 -90 3 0 5 21 4 46 -1 46 -8 65 -15 44z"/>
<path d="M18465 7450 c-3 -5 -2 -10 4 -10 5 0 12 -19 14 -42 3 -41 4 -41 5 10
2 48 -8 66 -23 42z"/>
<path d="M16185 7430 c-4 -7 2 -9 19 -4 34 8 35 -13 1 -26 -46 -17 -24 -56 25
-43 17 5 21 12 18 42 -3 31 -7 36 -30 39 -14 2 -29 -2 -33 -8z m45 -50 c0 -5
-9 -10 -21 -10 -11 0 -17 5 -14 10 3 6 13 10 21 10 8 0 14 -4 14 -10z"/>
<path d="M16270 7399 c0 -47 17 -52 22 -6 4 41 21 38 29 -5 5 -27 7 -29 8 -8
3 60 35 64 44 5 3 -22 4 -19 3 10 l-1 40 -52 1 -53 1 0 -38z"/>
<path d="M16413 7433 c-22 -8 -15 -61 8 -74 17 -9 25 -8 38 6 15 15 14 16 -10
10 -16 -4 -30 -2 -33 4 -5 7 4 11 23 11 32 0 41 16 19 38 -13 13 -24 14 -45 5z
m37 -13 c0 -5 -7 -10 -15 -10 -8 0 -15 5 -15 10 0 6 7 10 15 10 8 0 15 -4 15
-10z"/>
<path d="M18021 7423 c7 -12 15 -20 18 -17 3 2 -3 12 -13 22 -17 16 -18 16 -5
-5z"/>
<path d="M18350 7425 c7 -8 10 -26 8 -40 -3 -13 -1 -22 3 -19 16 9 10 62 -7
68 -14 5 -15 4 -4 -9z"/>
<path d="M18413 7433 c-8 -3 -12 -20 -12 -41 2 -34 2 -35 6 -7 3 17 9 36 15
43 11 13 10 13 -9 5z"/>
<path d="M17975 7411 c-6 -21 3 -51 17 -51 5 0 6 6 1 13 -4 6 -6 22 -4 35 3
27 -5 29 -14 3z"/>
<path d="M18066 7421 c-4 -6 4 -16 19 -23 15 -7 24 -17 21 -25 -3 -7 -1 -13 4
-13 6 0 10 9 10 20 0 11 -7 20 -15 20 -7 0 -18 7 -23 16 -6 11 -11 13 -16 5z"/>
<path d="M18153 7395 c0 -22 2 -30 4 -17 2 12 2 30 0 40 -3 9 -5 -1 -4 -23z"/>
<path d="M18186 7421 c-4 -6 4 -16 19 -23 15 -7 24 -17 21 -25 -3 -7 -1 -13 4
-13 6 0 10 9 10 20 0 11 -7 20 -15 20 -7 0 -18 7 -23 16 -6 11 -11 13 -16 5z"/>
<path d="M18305 7419 c-10 -14 3 -59 16 -59 8 0 8 5 -1 15 -6 8 -9 23 -5 35 7
21 1 27 -10 9z"/>
<path d="M1340 7035 c0 -300 2 -345 15 -345 13 0 15 26 15 170 l0 170 89 0 89
0 12 -35 c15 -47 53 -75 101 -75 50 0 82 15 102 50 38 64 12 139 -57 165 -43
16 -47 16 -83 -1 -23 -12 -44 -32 -53 -51 l-15 -33 -92 0 -93 0 0 165 c0 140
-2 165 -15 165 -13 0 -15 -45 -15 -345z"/>
<path d="M1500 7346 c0 -7 -10 -17 -22 -21 l-23 -8 23 -4 c14 -3 22 -12 22
-24 0 -10 5 -19 10 -19 6 0 10 9 10 20 0 11 7 20 15 20 8 0 15 5 15 10 0 6 -7
10 -15 10 -8 0 -15 7 -15 15 0 8 -4 15 -10 15 -5 0 -10 -6 -10 -14z"/>
<path d="M1080 7300 c0 -5 9 -10 20 -10 11 0 20 5 20 10 0 6 -9 10 -20 10 -11
0 -20 -4 -20 -10z"/>
<path d="M1240 7125 l0 -75 -92 0 -93 1 -20 32 c-11 18 -37 40 -58 51 -37 17
-40 18 -84 1 -37 -14 -49 -25 -64 -61 -18 -40 -18 -45 -3 -84 19 -48 55 -70
115 -70 33 0 47 6 75 34 19 19 34 43 34 55 0 20 5 21 95 21 l95 0 0 -81 0 -80
28 3 27 3 3 163 2 162 -30 0 -30 0 0 -75z"/>
<path d="M16962 6994 c-23 -16 -28 -48 -12 -74 6 -9 5 -17 -3 -22 -8 -5 -4 -8
11 -8 24 0 28 10 11 27 -19 19 -7 68 18 71 32 5 49 -32 29 -63 -20 -31 -20
-35 2 -35 13 0 18 10 20 44 2 37 -2 48 -20 60 -28 20 -28 20 -56 0z"/>
<path d="M16060 6945 c0 -30 5 -55 10 -55 6 0 10 11 10 25 0 15 6 25 14 25 8
0 23 -11 34 -25 27 -33 39 -32 17 2 -12 18 -14 28 -7 31 7 2 12 15 12 28 0 22
-4 24 -45 24 l-45 0 0 -55z m76 34 c8 -13 -13 -29 -38 -29 -11 0 -18 8 -18 20
0 15 7 20 24 20 14 0 28 -5 32 -11z"/>
<path d="M16473 6983 c-11 -22 -2 -85 12 -90 6 -2 9 18 8 48 -2 58 -7 69 -20
42z"/>
<path d="M16900 6930 c0 -49 4 -70 13 -70 8 0 12 21 12 70 0 49 -4 70 -12 70
-9 0 -13 -21 -13 -70z"/>
<path d="M17068 6939 c3 -44 0 -64 -10 -70 -10 -7 -9 -9 5 -9 15 0 17 10 17
70 0 39 -3 70 -7 70 -5 0 -6 -28 -5 -61z"/>
<path d="M18515 6983 c-15 -12 -16 -14 -3 -10 14 5 18 -2 21 -41 3 -46 3 -46
5 11 1 31 1 57 0 57 -2 0 -12 -8 -23 -17z"/>
<path d="M18586 6984 c-20 -51 8 -109 42 -87 19 12 26 44 18 79 -7 28 -50 34
-60 8z m49 -39 c0 -33 -3 -40 -20 -40 -15 0 -21 8 -23 28 -5 39 5 59 25 55 14
-2 18 -13 18 -43z"/>
<path d="M18694 6973 c-15 -24 -15 -26 -1 -14 15 12 17 11 17 -9 0 -17 -4 -21
-20 -17 -11 3 -20 1 -20 -4 0 -5 9 -9 20 -9 12 0 20 -7 20 -17 1 -17 2 -17 13
-2 13 18 11 99 -3 99 -4 0 -16 -12 -26 -27z"/>
<path d="M18825 6983 c-15 -12 -16 -14 -3 -10 14 5 18 -2 21 -41 3 -46 3 -46
5 11 1 31 1 57 0 57 -2 0 -12 -8 -23 -17z"/>
<path d="M16184 6956 c-3 -8 -4 -25 -2 -38 2 -18 9 -23 32 -23 17 0 31 6 34
15 5 13 3 13 -11 1 -18 -14 -47 -9 -47 9 0 5 14 10 31 10 24 0 30 4 27 18 -4
22 -56 29 -64 8z m51 -6 c4 -6 -5 -10 -20 -10 -15 0 -24 4 -20 10 3 6 12 10
20 10 8 0 17 -4 20 -10z"/>
<path d="M16270 6955 c0 -9 11 -21 25 -27 14 -6 25 -15 25 -20 0 -12 -24 -10
-39 5 -11 10 -13 9 -9 -3 7 -21 52 -19 56 2 2 12 -6 21 -22 28 -33 12 -34 24
-1 18 14 -3 25 -1 25 3 0 5 -13 9 -30 9 -20 0 -30 -5 -30 -15z"/>
<path d="M16350 6930 c0 -22 5 -40 10 -40 6 0 10 18 10 40 0 22 -4 40 -10 40
-5 0 -10 -18 -10 -40z"/>
<path d="M16390 6955 c0 -9 11 -21 25 -27 14 -6 25 -15 25 -20 0 -12 -24 -10
-39 5 -11 10 -13 9 -9 -3 7 -21 52 -19 56 2 2 12 -6 21 -22 28 -33 12 -34 24
-1 18 14 -3 25 -1 25 3 0 5 -13 9 -30 9 -20 0 -30 -5 -30 -15z"/>
<path d="M16515 6960 c-4 -7 2 -9 19 -4 16 4 26 2 26 -4 0 -6 -10 -12 -22 -14
-15 -2 -24 -11 -26 -26 -3 -20 0 -22 33 -20 35 2 36 3 33 38 -3 30 -7 35 -30
38 -14 2 -29 -2 -33 -8z m45 -39 c0 -14 -18 -23 -30 -16 -6 4 -8 11 -5 16 8
12 35 12 35 0z"/>
<path d="M16600 6931 c0 -23 5 -41 10 -41 6 0 10 16 10 35 0 24 5 35 15 35 10
0 15 -11 15 -35 0 -19 5 -35 11 -35 6 0 9 16 7 38 -3 34 -6 37 -35 40 -32 3
-33 2 -33 -37z"/>
<path d="M16694 6956 c-3 -8 -4 -25 -2 -38 4 -28 39 -36 58 -13 7 9 8 15 2 15
-6 0 -12 -5 -14 -12 -7 -21 -40 0 -36 24 2 18 9 23 31 21 15 -1 25 2 22 8 -9
14 -55 11 -61 -5z"/>
<path d="M16774 6956 c-3 -8 -4 -25 -2 -38 2 -18 9 -23 32 -23 17 0 31 6 34
15 5 13 3 13 -11 1 -18 -14 -47 -9 -47 9 0 5 14 10 31 10 24 0 30 4 27 18 -4
22 -56 29 -64 8z m51 -6 c4 -6 -5 -10 -20 -10 -15 0 -24 4 -20 10 3 6 12 10
20 10 8 0 17 -4 20 -10z"/>
<path d="M1250 6174 c-61 -26 -110 -86 -110 -134 0 -17 -6 -20 -38 -20 -34 0
-39 3 -51 36 -15 40 -62 74 -104 74 -119 0 -161 -161 -56 -216 59 -30 134 -4
159 55 11 27 17 31 51 31 34 0 39 -3 39 -24 0 -31 38 -85 79 -113 40 -27 126
-31 170 -8 38 19 77 66 91 110 10 31 15 35 46 35 24 0 34 -4 34 -16 0 -9 15
-31 34 -50 27 -27 42 -34 73 -34 70 0 112 43 112 115 1 53 -16 83 -56 104 -55
28 -134 -4 -159 -64 -12 -29 -20 -35 -43 -35 -25 0 -31 6 -41 35 -16 49 -57
95 -105 116 -48 22 -79 23 -125 3z m144 -29 l27 -18 -55 -56 -56 -56 -56 57
-57 56 39 21 c47 25 115 24 158 -4z m-146 -88 l52 -53 -55 -54 -54 -54 -20 45
c-12 24 -21 54 -21 66 0 26 29 103 39 103 4 0 30 -24 59 -53z m209 16 c18 -45
13 -111 -12 -149 l-17 -26 -54 53 -54 53 52 53 c29 29 56 53 61 53 4 0 15 -17
24 -37z m-92 -133 c47 -48 48 -50 30 -65 -30 -22 -82 -29 -123 -16 -71 21 -72
25 -17 81 27 27 52 50 55 50 3 0 28 -22 55 -50z"/>
<path d="M1240 5080 l0 -170 -90 0 c-88 0 -90 1 -90 23 0 27 -33 61 -75 77
-23 9 -38 8 -73 -6 -36 -13 -48 -25 -63 -60 -18 -40 -18 -45 -3 -84 19 -46 55
-70 107 -70 46 0 101 38 105 73 l3 27 90 0 89 0 0 -165 c0 -103 4 -165 10
-165 6 0 10 122 10 345 0 223 -4 345 -10 345 -6 0 -10 -63 -10 -170z"/>
<path d="M1375 5238 c-10 -26 0 -673 10 -673 6 0 11 63 13 163 l2 162 83 0 83
0 13 -35 c28 -80 158 -88 197 -14 29 57 10 132 -41 159 -61 32 -135 7 -161
-56 l-14 -34 -80 0 -80 0 0 164 c0 100 -4 167 -10 171 -6 3 -12 0 -15 -7z"/>
<path d="M910 3913 c-49 -25 -76 -81 -60 -128 16 -50 62 -85 112 -85 32 0 47
7 74 34 28 28 34 42 34 75 0 37 3 41 24 41 26 0 65 -41 67 -69 0 -9 7 -1 15
17 29 66 104 69 131 4 15 -37 16 -37 25 -12 24 64 81 80 117 34 12 -15 21 -34
22 -43 0 -9 7 -2 15 16 15 35 40 53 74 53 16 0 19 -4 14 -24 -8 -35 20 -92 55
-110 51 -27 98 -21 137 18 40 40 46 92 14 143 -37 62 -148 66 -186 8 -9 -13
-22 -21 -29 -19 -17 7 -71 -21 -78 -40 -5 -12 -12 -9 -36 14 -37 38 -65 38
-102 1 -27 -27 -30 -28 -39 -12 -5 10 -22 24 -39 30 -24 10 -34 10 -59 -3 -17
-9 -32 -21 -34 -28 -3 -9 -15 -4 -38 15 -18 16 -42 27 -54 25 -13 -2 -31 8
-46 24 -33 36 -84 44 -130 21z"/>
<path d="M873 2795 c-56 -24 -82 -113 -47 -163 20 -29 65 -52 101 -52 40 0 93
36 106 71 10 25 16 29 42 27 22 -2 31 -9 33 -25 3 -23 4 -23 182 -23 178 0
179 0 182 23 2 15 11 23 30 25 21 3 30 -3 42 -27 44 -84 145 -95 203 -21 7 8
13 38 13 66 0 42 -5 56 -25 77 -59 58 -153 38 -190 -41 -17 -35 -24 -42 -45
-40 -20 2 -26 9 -28 36 l-3 32 -179 0 -179 0 -3 -32 c-3 -29 -7 -33 -35 -36
-25 -2 -33 1 -33 13 0 31 -30 73 -64 89 -41 19 -61 20 -103 1z m582 -105 l0
-45 -167 -3 -168 -2 0 50 0 50 168 -2 167 -3 0 -45z"/>
<path d="M1234 1861 c3 -4 41 -30 84 -56 68 -41 79 -52 79 -76 0 -39 20 -59
59 -59 25 0 38 7 50 25 12 19 25 25 50 25 23 0 34 -5 34 -15 0 -8 16 -30 35
-50 28 -28 44 -35 73 -35 69 0 111 43 112 113 0 59 -11 82 -50 102 -68 35
-146 3 -170 -70 -10 -29 -16 -35 -40 -35 -15 0 -30 6 -33 14 -3 8 -17 22 -30
30 -19 13 -30 14 -54 6 -27 -10 -37 -6 -111 40 -81 50 -98 58 -88 41z m240
-107 c24 -9 20 -51 -4 -59 -37 -12 -64 27 -38 53 14 14 20 14 42 6z"/>
<path d="M918 1834 c-76 -41 -74 -159 2 -199 60 -31 135 -6 160 54 10 26 18
31 45 31 24 0 37 -7 49 -25 22 -33 78 -35 100 -3 23 32 20 54 -11 77 -31 25
-59 20 -88 -15 -24 -28 -85 -35 -85 -9 0 29 -30 75 -60 90 -36 19 -77 19 -112
-1z m340 -106 c2 -19 -2 -28 -18 -33 -37 -12 -64 27 -38 53 21 21 53 10 56
-20z"/>
<path d="M27 1593 c-4 -3 -7 -87 -7 -185 l0 -178 9508 -2 9507 -3 3 -608 2
-607 75 0 75 0 0 795 0 795 -9578 0 c-5268 0 -9582 -3 -9585 -7z m18985 -86
c43 42 81 74 85 70 4 -4 -27 -42 -69 -84 l-77 -77 76 -83 c41 -46 71 -83 66
-83 -4 0 -42 34 -83 75 l-75 75 -82 -82 c-46 -46 -83 -76 -83 -68 0 9 34 49
75 90 l75 75 -75 75 c-41 41 -75 82 -75 90 0 8 37 -22 83 -68 l82 -82 77 77z
m-18664 -39 c17 -17 15 -68 -5 -90 -9 -10 -29 -18 -45 -18 -28 0 -28 1 -28 60
l0 60 33 0 c18 0 38 -5 45 -12z m80 5 c-36 -5 -40 -42 -5 -44 l22 -2 -22 -4
c-33 -6 -31 -43 2 -43 14 0 25 -4 25 -10 0 -5 -16 -10 -35 -10 l-35 0 0 60 0
60 38 -1 c30 -2 32 -3 10 -6z m114 -42 c9 -53 -2 -71 -43 -71 -29 0 -29 1 -29
61 l0 60 32 -3 c30 -3 33 -7 40 -47z m33 -13 c5 -32 10 -38 30 -38 23 0 25 4
25 50 0 28 5 50 10 50 6 0 10 -20 10 -44 0 -47 -19 -76 -49 -76 -29 0 -41 22
-40 75 1 51 3 49 14 -17z m175 53 c0 -6 -12 -9 -26 -8 -32 2 -49 -21 -40 -56
5 -20 13 -27 31 -27 26 0 35 25 13 33 -7 2 -10 8 -6 12 13 14 38 -4 38 -29 0
-16 -7 -27 -20 -31 -61 -19 -99 49 -57 103 11 14 67 17 67 3z"/>
<path d="M290 1425 c0 -37 3 -45 18 -45 39 0 55 45 26 74 -29 30 -44 20 -44
-29z"/>
<path d="M490 1450 c0 -22 7 -25 29 -11 16 10 6 31 -15 31 -8 0 -14 -9 -14
-20z"/>
<path d="M490 1401 c0 -15 6 -21 21 -21 25 0 22 33 -4 38 -12 2 -17 -3 -17
-17z"/>
</g>
</svg>
